<?xml version="1.0" encoding="utf-8"?>
<!-- Generator: Adobe Illustrator 27.2.0, SVG Export Plug-In . SVG Version: 6.00 Build 0)  -->
<svg version="1.1" id="Layer_1" xmlns="http://www.w3.org/2000/svg" xmlns:xlink="http://www.w3.org/1999/xlink" x="0px" y="0px"
	 viewBox="0 0 409.4 71.9" style="enable-background:new 0 0 409.4 71.9;" xml:space="preserve">
<style type="text/css">
	.st0{fill-rule:evenodd;clip-rule:evenodd;fill:#231F20;}
	.st1{fill:#6E1E6F;}
	.st2{fill:#E5A823;}
	.st3{fill:#F1DEAE;}
</style>
<g transform="matrix(.541667 0 0 .541667 -44.9999 -16.6667)">
	<g>
		<path class="st0" d="M314.5,72.9c-0.2-0.2-0.4-0.3-0.8-0.3c-4.5-0.5-8.3-1.5-11.3-3c-2.8-1.4-5.9-3.5-9-6.1c1.9-0.2,4-0.3,6.6-0.4
			c4.1-0.1,4.9-0.2,5.2-0.3c0.7-0.2,0.8-0.6,0.8-0.9c0-0.7-0.4-1.2-1.1-1.6c-0.7-0.4-1.4-0.6-2.3-0.6c-0.6,0-2,0.3-4.1,0.8
			c0,0-4.6,0.9-6,1.2c0.1-0.7,0.4-2.2,0.4-2.2c0,0,0.2-0.4,0.2-0.4l0.3-0.8c0-0.6-0.6-1.2-1.9-1.7c3-0.7,5.7-1.3,7.9-1.7
			c0.6,0,0.7-0.5,0.7-0.5c0-0.3-0.2-0.7-2-2.1c-1.3-1-2.3-1.4-3-1.4c-0.1,0-0.4,0-0.6,0.2c0,0.1-0.3,0.8-0.3,1.1
			c-1.2,1.1-4.8,2.8-10.8,5.2l-0.4,0.2l0.6,0.7l0.2,0c1.8-0.1,3.7-0.4,5.7-1l0,0c0,0.1,0.5,2.3,0.5,2.3c0.2,0.8,0.3,1.5,0.3,2.3
			c0,0,0,0,0,0c-0.6,0.1-6.5,1-6.5,1c-3,0.5-5.6,0.9-7.6,1l-0.8,0.1l0.6,0.5c1.2,1.1,2.2,1.7,3.1,1.7c0.2,0,0.8-0.1,3.2-0.6
			c0,0,3-0.6,4.6-1c-3.7,5.3-9,9.6-15.9,12.6l-0.2,0.1V78c0,0.1,0,0.5,0.6,0.5c1.1,0,2.6-0.4,4.4-1.1c1.8-0.7,3.4-1.6,4.8-2.5
			c1.4-0.9,2.7-2,4-3.1c1.2-1.2,2.4-2.4,3.5-3.7c0,0,1.5-2,2.4-3.2c-0.1,1.4-0.2,2.7-0.5,3.8c-0.4,1.4-0.6,2.3-0.6,2.8
			c0,0.8,0.3,1.7,1,2.7l0,0.1l0.1,0.1l0.1,0.1c0,0,0.5,0.2,0.5,0.2c0.5,0,0.8-0.5,1.2-1.9c0.4-1.1,0.5-2.5,0.5-4.1
			c0,0-0.1-2.7-0.2-4.1c1,1.2,2.8,3,5.6,5.7c3.5,3.3,5.9,4.9,7.2,4.9c1.4,0,4.5-0.5,9.4-1.4l0.2,0l0.1-0.2c0-0.1,0-0.1,0-0.2
			C314.6,73.1,314.6,72.9,314.5,72.9 M298.4,74.1c-1.4-0.6-2.4-0.9-3-0.9c-0.1,0-2.5,0.9-2.5,0.9c-1.9,0.6-3.6,1-5.2,1.2l-2.5,0.3
			l-0.9-0.2l-1.5-0.2c-0.9,0-1,0.5-1,0.8c0,0.1,0.7,1.7,0.7,1.7c0.2,0.5,0.3,1.3,0.4,2.4l0.1,3.7c0,1.4-0.1,2.5-0.3,3.2l-0.3,1.7
			c0,1,0.2,2,0.6,2.9c0.5,1.1,0.9,1.6,1.3,1.6c0.4,0,0.8-0.4,1.1-3.8c0.3,0,0.6,0.1,0.6,0.1l3.4-0.4l2.9-0.4c0.4,0,0.7,0.1,1,0.4
			c0.3,0.3,0.6,0.7,0.8,1.3l0.8,2.1l0.7,1.9l0.2,0l0.7,0.2l0.1-0.1c2-1.6,3-4.4,3-8.2l-0.2-5.7c0-2.4,0.3-3.2,0.5-3.4
			c0.5-0.7,0.6-1,0.6-1.2C300.6,75.3,299.9,74.7,298.4,74.1 M295.8,87.6l-0.6-0.6c-0.6-0.6-1.2-0.9-1.8-0.9c-0.7,0-2.1,0.2-4.1,0.7
			c-1.7,0.4-3,0.6-3.8,0.7c0-0.6,0-3.7-0.1-4.3c1.6,0,3.3-0.2,5.2-0.5c3.2-0.5,3.3-0.6,3.4-0.8c0,0,0.2-0.5,0.2-0.5
			c0-0.4-0.3-0.8-1-1.2c-0.6-0.3-1.2-0.4-1.8-0.4c-0.7,0-1.6,0.2-2.7,0.6l-2.1,0.7c0,0-0.8,0.2-1.3,0.3c0-0.3,0-0.7,0-1.1
			c0-0.9,0-1.9-0.1-3c1.1,0,2.1-0.1,3.2-0.4c2.9-0.6,4.9-0.9,5.9-0.9c0.4,0,0.7,0.1,0.9,0.3c0.2,0.2,0.4,0.4,0.4,0.7l0.2,2.6
			l0.1,3.9C296.1,86.1,295.9,87.1,295.8,87.6 M376.8,78.5c-5-1.5-8.5-2.9-10.6-4.1c-1.9-1.2-4.7-3.3-8.1-6.2
			c2.3-0.4,4.6-0.6,6.8-0.7l4.5-0.2c0.9-0.1,1.1-0.5,1.1-0.8c0-0.4-0.3-0.8-1.1-1.5c-0.7-0.6-1.4-0.9-2.3-0.9
			c-1.6,0-4.2,0.5-7.6,1.4c0.3-0.9,1.3-4.3,1.4-4.6c0.3,0,1.4-0.2,1.4-0.2c0,0,2.6-0.3,2.6-0.3c1-0.1,2.2-0.3,2.2-1.2
			c0-0.6-0.4-1.4-2.3-1.4c-0.6,0-1.6,0.2-3,0.5c0.5-1,2.2-4.9,2.2-4.9l-0.1-0.1c-0.2-0.5-0.8-1-2.1-1.5c-1.2-0.5-2-0.8-2.6-0.7
			l-0.1,0l-0.1,0.1c-0.3,0.3-0.4,0.6-0.4,0.8l0.4,1.2c0.2,0.5,0.4,1.1,0.4,1.9c0,0.5-0.2,1.9-0.6,4c-0.4,0.1-5.3,1-6,1.2
			c0-0.6,0.1-2,0.1-2l0.2-2.8l-0.2-0.1c-1.3-0.9-2.6-1.4-3.9-1.4c-0.9,0-0.9,0.5-0.9,0.7c0,0.1,0,0.1,0.7,1.5
			c0.4,0.8,0.8,1.7,0.9,2.8c0,0,0.3,1.2,0.4,1.8c-0.6,0.1-5.3,1.1-5.3,1.1l0.5,0.5c0.8,0.7,1.7,1,2.7,1c0.5,0,1.3-0.2,2.3-0.4
			c0.1,0.6,0.5,3.7,0.6,4.2c-3.1,0.6-6.1,1.1-8.8,1.3l-0.6,0.1l0.4,0.5c0.7,1,1.8,1.5,3.3,1.5c0.8,0,1.7-0.1,2.7-0.4
			c0,0,0.9-0.2,1.6-0.4c-1.8,5-5.5,9.7-11.3,13.9l-0.2,0.1c0.2-0.5,0.4-1.1,0.7-1.7c0,0,4.4-9.4,4.4-9.4l-1,0l-3.1,3.9
			c-1.4,1.8-2.3,3-2.9,3.5c-0.5,0.4-1,0.7-1.5,0.7c-0.8,0-1.2,0.3-1.2,0.8c0,0.7,0.3,1.8,0.8,3.6c0.6,1.9,1.2,2.8,1.9,2.8
			c0.9,0,1.2-1.4,1.3-1.8c0.1-0.6,0.3-1.2,0.5-2l0.6,0.4l0.2-0.1c3.9-1.1,7.1-3.6,9.6-7.2c0.2,1.2,0.4,2.6,0.4,4.3l-0.1,4
			c0,1.5,0.5,2.9,1.6,4.1c1.1,1.3,3.4,1.9,6.9,1.9c2.2,0,4.3-0.2,6.3-0.7c2.2-0.5,3.2-1.3,3.2-2.3c0-0.5-0.4-0.9-1.1-1.2l-1.5-0.4
			c-0.4,0-0.9,0.2-1.4,0.5c-0.4,0.2-1.3,0.5-2.6,0.8c-1.3,0.3-2.6,0.4-4.1,0.4c-1.6,0-2.7-0.2-3.5-0.5c-0.7-0.3-1.1-0.9-1.2-1.9
			c0,0-0.2-2-0.2-2.9c0.4,0,0.9,0.1,0.9,0.1c0.5,0,1.7-0.2,3.9-0.5c3.3-0.6,3.5-0.9,3.7-1L360,81c0-0.6-0.6-0.9-1-1.1
			c0.2-0.5,0.8-1.8,0.8-1.8c0.2-0.4,0.5-0.8,0.9-1.1c0.6-0.4,0.9-0.7,0.9-1c0-0.5-0.6-1.1-1.8-1.7c-1.2-0.7-1.9-1-2.5-1
			c-0.1,0-2.1,0.9-2.1,0.9l-2.2,0.7c-0.8,0.2-1.6,0.3-2.4,0.3c0,0-0.3-0.1-0.7-0.1c0.5-0.6,1.6-2,1.6-2c1.7-2.2,1.7-2.3,1.7-2.5
			c0-0.3-0.3-0.7-1.3-1.4c1.1-0.2,3.7-0.7,4-0.8c0.3,0.3,4.8,5.4,4.8,5.4c1.7,1.9,3.2,3.4,4.5,4.5c1.4,1.2,2.2,1.9,2.7,2
			c0,0,1.6,0.3,1.6,0.3c0.5,0,1.8-0.2,4.1-0.5c3.5-0.5,3.6-0.8,3.6-1.2C377.3,78.8,377.2,78.6,376.8,78.5 M338.7,84.3
			c0.1-0.1,0.2-0.2,0.3-0.3c0,0,0.1,0,0.1,0l0,0L338.7,84.3z M351.2,77.1c0.6,0,1.6-0.1,2.8-0.4l2.7-0.4c0.1,0,0.2,0,0.2,0.2
			c0,0,0.1,1.1,0.1,1.1l-0.1,1.6l-0.3,0.9c0,0-0.2,0.2-1.3,0.5l-2.2,0.5c0,0-1.2,0.2-1.8,0.2L351.2,77.1L351.2,77.1z M353,66.9
			c0-1.5-0.1-2.9-0.1-4.4c0.5-0.1,4.7-0.9,5.5-1.1c-0.2,0.8-1,4.3-1.1,4.6C357,66.2,353.6,66.8,353,66.9 M343.3,61.9
			c0.5,0,1.4-0.2,1.4-1.7c0-1.2-0.6-2.2-1.6-2.9c-1-0.7-2.4-1.1-4.1-1.1l-1.6,0.2l0.4,0.5C341.2,61.4,342.5,61.9,343.3,61.9
			 M338.9,71c0.6,0,1.6-0.2,1.6-1.9c0-1-0.4-1.9-1.2-2.7c-0.8-0.7-2.4-1.2-5-1.5l-0.6-0.1l0.3,0.6C335.8,69.2,337.4,71,338.9,71
			 M429.1,61.6c-1.6-1.2-2.7-1.7-3.5-1.7c-0.1,0-0.4,0-1.8,0.6c-0.9,0.4-3.6,0.8-7.9,1.4c0.1-3.5,0.4-5.8,0.7-7l0.2-1.1
			c0-0.7-0.5-1.3-1.6-2c-1-0.6-2.1-0.9-3.5-1.2l-0.1,0l-0.1,0c-0.8,0.3-0.9,0.8-0.9,1.1l0.1,0.4c0.7,1,1.2,2.1,1.5,3.4
			c0.3,1.3,0.5,3.6,0.5,6.7c-3.4,0.5-5.7,0.8-7,0.8l-3.1-0.3l-3.3-0.3l-0.1,0.1c-0.2,0.1-0.4,0.3-0.4,0.8l0.2,0.7
			c0.7,0.7,1.2,1.5,1.7,2.5c0.4,1,0.8,3.1,1.1,6.4c0.4,3.6,1.1,5.3,2.3,5.3c0.6,0,0.9-0.8,1-2.8c0.5-0.1,6.9-0.6,7.6-0.7
			c0,0.7-0.1,7.1-0.1,7.1l-0.2,7.5c0,0.6,0.2,1.8,0.6,3.8c0.5,2.7,0.9,3.2,1.3,3.2h0.1l0.2-0.2c0.5-0.5,1.2-1.9,1.2-8.1
			c0,0-0.2-11.7-0.2-13.4c4.5-0.3,7.8-0.5,9.8-0.5c0.6,0,1.8,0,1.8-0.7c0-0.7-0.3-1.5-1.5-1.8c2.1-3.2,3.5-5.1,4.3-5.7
			c1.2-0.9,1.5-1.3,1.5-1.6C431.5,63.7,431.3,63.2,429.1,61.6 M425.1,64.6c0,0.6-0.2,1.8-0.6,3.5c-0.3,1.7-0.9,2.7-1.7,3.1
			c-0.8,0.4-3.2,0.8-7.2,1.1c0-0.7,0-7.9,0-8.4c3.6-0.6,6.3-0.9,7.7-0.9c0.9,0,1.2,0.2,1.3,0.3C425,63.6,425.1,64,425.1,64.6
			 M412.7,64.3v8.3c-0.6,0.1-6.9,0.7-7.6,0.7c0-3.1-0.2-5.7-0.5-7.9C405.1,65.4,412,64.4,412.7,64.3 M472.9,56.8
			c2.1,1.7,3.7,2.6,4.9,2.6c0.7,0,1.5-0.4,1.5-2.4c0-0.8-0.5-1.6-1.4-2.3c-0.9-0.7-1.8-1.1-2.8-1.3c-0.9-0.1-2.5-0.2-4.8-0.3l-0.4,0
			l-0.1,0.4C469.7,53.8,470,54.4,472.9,56.8 M497.7,87.3c-5.5-0.6-9.9-1.6-13.2-3.1c-3.2-1.5-6.1-3.5-8.6-6.1c0.5-1.1,1-2.6,1.6-4.5
			l1.1-4c0.2-0.5,0.4-0.9,0.6-1.1l0.5-0.9c0-0.4-0.3-0.8-1.2-1.5c-0.5-0.4-1-0.6-1.5-0.8c3.8-0.7,7.8-1.3,12-1.7
			c0.9-0.5,1.3-1,1.3-1.5c0-0.6-0.5-1-1.5-1.5c-0.9-0.4-1.8-0.6-2.9-0.6c-1.6,0-3.2,0.4-4.8,1.3c-5.6,2.4-12.8,3.7-21.2,3.8l-0.7,0
			l0.4,0.5c0.9,1.3,2.2,2,4.1,2c1.9,0,5.7-0.7,11.2-2c0,0.1-0.2,0.2-0.2,0.3c0,0,0.2,1.7,0.2,1.7c0,1.7-0.5,4.3-1.6,7.8
			c-0.6-0.7-2.4-2.8-2.4-2.8c-1.3-1.7-2.3-2.7-3.1-3.1c-0.7-0.5-1.5-0.7-2.2-0.7c-0.5,0-2.1,0-2.1,1l0.2,0.6l0.1,0
			c2.8,1.3,5.7,3.8,8.5,7.4c-2.9,3.8-8.4,6.3-16.4,7.5l-0.1,0.7c1.3,0.4,2.6,0.6,3.7,0.6c1.5,0,3.9-0.5,7.1-1.4
			c3.1-0.9,5.7-2.6,7.8-4.9c2.4,2.8,4.8,5.1,7.1,6.9c2.4,1.9,4.1,2.9,5.2,2.9c0.9,0,2.7-0.3,5.5-0.9l5.6-1.1L497.7,87.3z
			 M552.7,86.3c-2.1-0.5-4.1-1.4-6-2.6c-1.9-1.3-3.7-2.9-5.4-4.9c-1.7-2-3.3-4.3-4.9-7c0-0.2,0.1-2,0.1-2.4c1.9-0.4,4.5-0.7,8-1
			l6.4-0.7c1-0.2,1.2-0.7,1.2-1.1c0-0.6-0.5-1.1-1.7-1.7c-1-0.5-2.3-0.8-3.7-0.8c-0.1,0-0.3,0-3.5,1.2c-1.9,0.7-4.1,1.2-6.7,1.5
			c0.1-4.6,0.3-7.6,0.7-8.9c0.5-1.4,0.7-2.3,0.7-2.8c0-0.7-0.3-1.2-0.8-1.6c-0.5-0.3-1.2-0.7-2.2-1c-1-0.3-2-0.5-3-0.5
			c-0.6,0-1,0.3-1,0.9c0,0.3,0.2,0.5,0.5,0.8c1.3,1.5,2,4.4,2,8.4c0,0-0.1,4.6-0.1,5.2C532.8,67.4,521,69,521,69l0.4,0.5
			c0.9,1.2,2.3,1.7,4.1,1.7c1.1,0,2.6-0.2,4.5-0.7c0,0,2.4-0.5,3.4-0.7c-0.8,9-5.3,15.2-13.7,18.5l0.1,0.7c2.7,0.1,5.8-1.1,9.1-3.5
			c3.2-2.4,5.4-6,6.9-10.7c2,3.6,4.2,7,6.7,10.2c3.7,4.6,5.1,5.1,5.9,5.1c2.6,0,6.5-0.5,11.5-1.4l0-0.7L552.7,86.3z M596.7,55.4
			c0.6,0.4,0.9,0.8,1.2,1.1c-0.3,0.4-3.1,3.9-3.1,3.9l1-0.2c1.4-0.4,2.6-1.2,3.7-2.3c0.2,0.3,0.8,0.9,0.8,0.9
			c0.6,0.7,1.1,1.1,1.7,1.3l0.2,0.1l0.1-0.1c0.5-0.3,0.7-0.8,0.7-1.2c0-0.8-0.6-1.8-1.8-2.8c0.3-0.3,0.9-1,0.9-1
			c0.7-0.7,1-1.5,1-2.2c0-0.7-0.9-1.2-2.8-1.5l-0.5-0.1l0.1,0.5c0,0.2,0,0.4,0,0.5c0,0.8-0.3,1.7-0.9,2.6c-0.4-0.2-1.2-0.6-1.2-0.6
			c-0.8-0.4-1.6-0.6-2.2-0.6l-0.6,0l0.3,0.5C595.4,54.4,595.9,54.8,596.7,55.4 M594.2,68l1-0.2c1.2-0.2,2.7-1.3,4.5-3.1
			c0.4,0.4,1.8,1.9,1.8,1.9l1,0.2l0-0.3l0.1-0.8c0-0.8-0.6-1.7-1.7-2.7c0.2-0.2,0.5-0.7,0.5-0.7c0.4-0.5,0.6-1,0.6-1.5
			c0-0.1,0-0.2,0-0.2l0-0.1l-0.1-0.1c-0.6-0.4-1.1-0.7-1.5-0.7c-0.4,0-0.9,0.2-1.1,1.3c-0.1,0.5-0.2,0.7-0.2,0.9
			c-0.8-0.5-1.6-0.8-2.2-0.8l-1.5,0.2l0.8,0.5c0.9,0.6,1.5,1.2,1.8,1.6c-0.3,0.4-1.4,1.7-1.4,1.7L594.2,68z M618.6,67.6
			c-1.1-1.1-2-1.7-2.8-1.7l-2.2,0.4c-1,0.2-2.4,0.4-4,0.4c0.2-0.8,1.3-5.9,1.3-5.9c0.6-2.7,0.9-3.6,1.1-3.9c0.3-0.5,0.6-0.8,0.9-1
			c0.5-0.4,0.7-0.6,0.7-0.9c0-0.3-0.1-0.6-2-1.7c-1.7-1.1-2.1-1.2-2.3-1.2c-0.1,0-0.2,0-1.7,0.6c-0.9,0.4-2.1,0.7-3.7,1.1l-0.8,0.2
			l0.6,0.5c0.8,0.6,1.6,0.9,2.3,0.9l1.3-0.2l1.1-0.2c0.2,0,0.6,0,0.6,1c0,0.5-0.1,1.1-0.3,1.7c-1.3,0-2.9,0.1-5,0.5l-0.6,0.1
			l0.4,0.5c0.5,0.7,1.3,1.1,2.3,1.1l2.4-0.2c0,0,0.1,0,0.2,0c-0.1,0.5-0.4,2-0.5,2.4c-0.5,0-5,0.4-5,0.4l0.1,0.4
			c0.2,0.6,0.7,1.3,2.1,1.3l1.6-0.1c0,0,0.5-0.1,0.9-0.1c-0.1,0.7-0.4,2.7-0.5,3.1c-0.5,0.1-14,1.6-14.6,1.7
			c-0.1-0.5-0.3-2.3-0.4-2.8c0.5-0.1,1.5-0.3,1.5-0.3l1.7-0.4l0.2-0.1l0.2-0.1c0.3-0.2,0.4-0.4,0.4-0.6c0-0.1,0-0.2-0.1-0.3l0-0.1
			l-0.1-0.1c-0.4-0.3-0.8-0.5-1.3-0.5c-0.4,0-1,0.2-1.7,0.5c-0.6,0.2-0.9,0.3-1.1,0.4c-0.1-0.5-0.4-2-0.4-2.4
			c0.4-0.1,1.7-0.5,1.7-0.5c0.8-0.3,1.9-0.7,1.9-1.5c0-0.3-0.1-1-1.2-1c-0.5,0-1.1,0.2-1.9,0.5c0,0-0.6,0.2-1,0.3
			c-0.1-0.4-0.2-1-0.2-1s-0.1-1.1-0.1-1.4c0.3-0.2,3.8-2.3,3.8-2.3l0-0.2c0-0.6-0.4-1.1-1.2-1.5c-0.7-0.4-1.3-0.6-1.9-0.6
			c-0.9,0-1,0.5-1,0.7c0,1-0.4,2-1.2,2.9c-2.1,0-2.9,0.3-2.9,0.9l0.5,0.8c1.2,1.1,2.4,4.8,3.5,11.1c-0.6,0.1-4.4,0.8-4.8,0.9
			c-0.7-1.2-1.4-2-2.1-2.1l-0.5-0.1l0,0.5c0.1,1.8-0.2,3.2-0.8,4.2c-0.7,1.1-1.1,2-1.1,2.7c0,1.7,0.8,1.9,1.3,1.9
			c0.7,0,1.5-0.6,2.3-1.7c0.7-1,1.1-2.2,1.2-3.5c1.6-0.4,6-1,13.1-1.9c7.4-0.8,11.8-1.3,13.2-1.3l1.7,0.1c0,0,0.3,0.1,0.3,0.1
			c0,0.1-0.2,0.7-2.2,2.6l0.3,0.6l3.6-1c0,0,1.6-0.1,1.6-0.1c1.2,0,2.6-0.1,2.6-1C620.2,69.4,620.1,69.1,618.6,67.6 M613.7,78.3
			c-0.9-0.6-2-0.9-3.4-0.9c-0.9,0-2.3,0.2-4.2,0.6c-1.8,0.4-3.1,0.6-3.9,0.6c0,0-0.8,0.1-0.8,0.1c-0.1,0-0.2-0.1-0.3-0.2
			c1.6-1.4,3.2-2.6,4.9-3.6c1-0.4,1.3-1,1.3-1.5c0-0.1,0-0.2,0-0.3l0-0.1l-0.1-0.1c-1.7-1.4-3.3-2.1-4.8-2.1c-0.1,0-3.7,1.2-3.7,1.2
			l-3.8,0.9c-1.3,0.2-2.6,0.3-3.9,0.3l-0.8,0l0.5,0.6c1,1.2,2.3,1.7,3.7,1.7c0.1,0,6.8-2.1,7.1-2.2h0.6c0.1,0,0.1,0.3,0.1,0.5
			c0,0.2-0.3,1-2.3,3.6c-0.8-0.6-1.6-0.9-2.4-0.9c-0.8,0-0.9,0.5-0.9,0.7c0,0.2,0.2,0.5,1,1.2c0.3,0.3,0.5,0.5,0.7,0.7
			c-7.3,0.9-12.6,1.5-15.6,1.7l-0.3,0l-0.1,0.4c0,0.3,0.2,0.7,1.4,1.5c0.9,0.6,1.6,0.9,2.3,0.9c0.3,0,1.3-0.1,5.8-1.1
			c3.2-0.7,5.5-1.1,7.1-1.2c0.2,1.3,0.4,2.6,0.4,4c0,3.6-0.7,5.5-2.1,5.5c-0.6,0-2.2-0.3-4.6-0.8l-0.3,0.6c2.5,1.6,4.2,3.2,4.8,4.5
			l0.1,0.3l0.3-0.1c3-1.3,4.5-4.3,4.5-9.1c0-1.4-0.2-3.1-0.5-5.1c0.7,0,5.6-0.2,5.6-0.2l6.7,0.2c1,0,1.1-0.6,1.1-0.9
			C615.2,79.6,614.7,79,613.7,78.3 M279,129.1c0,1.4-0.1,2.3-0.3,2.7c-0.2,0.4-0.7,0.5-1.5,0.5l-1.7,0.1v1.1
			c1.9-0.1,3.6-0.1,5.4-0.1c1.7,0,3.4,0,5.3,0.1v-1.1l-1.7-0.1c-0.9,0-1.3-0.2-1.5-0.5c-0.3-0.4-0.3-1.3-0.3-2.7v-15.4
			c0-1.4,0-2.5,0.1-3.6h5.6c1.1,0,1.4,0.3,1.5,1.2l0.1,2.9h1.1c0-2,0.1-4,0.3-5.9c-1.3,0-2.6,0-3.9,0c-1.3,0-2.6,0.1-3.9,0.1h-5.3
			c-2.6,0-5.2-0.1-7.9-0.1c0.2,1.9,0.3,3.9,0.3,5.9h1.1l0.1-2.9c0.1-0.9,0.4-1.2,1.5-1.2h5.6c0.1,1.1,0.1,2.3,0.1,3.6L279,129.1
			L279,129.1z"/>
		<path class="st0" d="M292.9,129.7c0,1,0,1.7-0.2,2.1c-0.1,0.3-0.5,0.5-1.2,0.5l-1.6,0.1v1.1c1.3,0,2.7-0.1,4.5-0.1
			c1.8,0,3.2,0.1,4.5,0.1v-1.1l-1.6-0.1c-0.6,0-1-0.2-1.2-0.5c-0.1-0.4-0.2-1.1-0.2-2.1V122c0-1.5,2.3-3.4,4.5-3.4
			c2.5,0,4.2,1.6,4.2,4.6v10.3c0.8,0,1.9-0.1,2.9-0.1c1,0,2.1,0.1,3,0.1v-1.1l-1.5-0.1c-0.6,0-1-0.2-1.2-0.5
			c-0.1-0.4-0.2-1.1-0.2-2.1v-7c0-4-1.7-6.3-6-6.3c-1.5,0-2.1,0.2-2.9,0.9l-2.7,2.3H296v-12.3l-0.3-0.3c-1.8,0.7-3.7,1.1-5.7,1.3v1
			h2c0.8,0,0.9,0.7,0.9,1.5L292.9,129.7L292.9,129.7z M319,117.6c2.6,0,3.9,2.8,3.9,6.2c-2.6,0.1-5.7,0.2-8.7-0.1
			C314,119.7,316.2,117.6,319,117.6 M319.2,116.4c-1.2,0-2.3,0.4-3.6,1c-0.8,0.4-1.6,0.9-2.3,1.5c-1.7,1.3-2.6,3.4-2.6,6.9
			c0,4.9,2.9,8.4,8.4,8.4c2.5,0,5.6-1.6,5.8-2l0.7-1.2l-0.5-0.4c-1.4,0.8-2.8,1.7-4.5,1.7c-4.5,0-6.6-2.9-6.6-7.2h5.3
			c2.2,0,4.4-0.1,6.6-0.5c0.1-0.5,0.1-1,0.1-1.5C326.1,118.9,323.1,116.4,319.2,116.4 M357.4,130.4l-0.3-0.4
			c-1.7,1.2-4.8,2.2-7.4,2.2c-7.2,0-12-4.7-12-11.9c0-6.2,3.6-11.2,10.4-11.2c1.3,0,2.9,0.2,4.1,0.6c1.7,0.6,3.1,1.2,3.1,2.3v2.6
			h1.1c0-1.9,0.3-3.8,0.7-5.5c-1.8-0.6-5-1.5-8.4-1.5c-4.1,0-7.8,1.2-10.5,3.5c-2.8,2.3-4.4,5.6-4.4,9.8c0,8.3,5.9,13.2,14.6,13.2
			c2.2,0,5.8-0.7,7.9-2L357.4,130.4z M360.9,129.7c0,1,0,1.7-0.2,2.1c-0.1,0.3-0.6,0.5-1.2,0.5l-1.6,0.1v1.1c1.3,0,2.7-0.1,4.5-0.1
			c1.8,0,3.2,0.1,4.5,0.1v-1.1l-1.6-0.1c-0.6,0-1-0.2-1.2-0.5c-0.1-0.4-0.2-1.1-0.2-2.1V122c0-1.5,2.2-3.4,4.5-3.4
			c2.5,0,4.2,1.6,4.2,4.6v10.3c0.8,0,1.9-0.1,2.9-0.1c1,0,2.1,0.1,3,0.1v-1.1l-1.5-0.1c-0.6,0-1-0.2-1.2-0.5
			c-0.1-0.4-0.2-1.1-0.2-2.1v-7c0-4-1.7-6.3-6-6.3c-1.5,0-2.1,0.2-2.9,0.9l-2.7,2.3H364v-12.3l-0.3-0.3c-1.8,0.7-3.7,1.1-5.7,1.3v1
			h2c0.8,0,0.9,0.7,0.9,1.5L360.9,129.7L360.9,129.7z M384.6,116.5l-0.3-0.1c-1.3,0.6-3.5,1.3-5.7,1.5v1h1.3c0.8,0,1.1,0.1,1.4,0.4
			c0.2,0.3,0.3,1.1,0.3,2.3v8.2c0,1,0,1.7-0.2,2.1c-0.1,0.3-0.5,0.5-1.2,0.5l-1.7,0.1v1.1c1.3,0,2.8-0.1,4.6-0.1
			c1.8,0,3.2,0.1,4.5,0.1v-1.1l-1.7-0.1c-0.6,0-1-0.2-1.2-0.5c-0.1-0.4-0.2-1.1-0.2-2.1L384.6,116.5z M382.9,108.5c-1.1,0-2,1-2,2
			c0,1.1,0.9,2,2,2c1.1,0,2-1,2-2C385,109.4,384,108.5,382.9,108.5"/>
		<path class="st0" d="M393.6,122c0-1.5,2.3-3.4,4.5-3.4c2.5,0,4.2,1.6,4.2,4.6v10.3c0.8,0,1.9-0.1,2.9-0.1c1,0,2.1,0.1,3,0.1v-1.1
			l-1.5-0.1c-0.6,0-1-0.2-1.2-0.5c-0.1-0.4-0.2-1.1-0.2-2.1v-7c0-4-1.7-6.3-6-6.3c-1.5,0-2.1,0.2-2.9,0.9l-2.7,2.3h-0.1v-3.1
			l-0.3-0.1c-1.3,0.6-3.5,1.3-5.7,1.5v1h1.3c0.8,0,1.1,0.1,1.3,0.4c0.2,0.3,0.3,1.1,0.3,2.3v8.2c0,1,0,1.7-0.2,2.1
			c-0.1,0.3-0.5,0.5-1.2,0.5l-1.6,0.1v1.1c1.3,0,2.7-0.1,4.5-0.1c1.8,0,3.2,0.1,4.5,0.1v-1.1l-1.6-0.1c-0.6,0-1-0.2-1.2-0.5
			c-0.2-0.4-0.2-1.1-0.2-2.1L393.6,122L393.6,122z M416.6,117.6c2.6,0,3.9,2.8,3.9,6.2c-2.6,0.1-5.7,0.2-8.7-0.1
			C411.6,119.7,413.8,117.6,416.6,117.6 M416.8,116.4c-1.2,0-2.3,0.4-3.6,1c-0.8,0.4-1.6,0.9-2.3,1.5c-1.7,1.3-2.6,3.4-2.6,6.9
			c0,4.9,2.9,8.4,8.4,8.4c2.5,0,5.6-1.6,5.8-2l0.7-1.2l-0.5-0.4c-1.4,0.8-2.8,1.7-4.5,1.7c-4.5,0-6.6-2.9-6.6-7.2h5.3
			c2.2,0,4.4-0.1,6.6-0.5c0.1-0.5,0.1-1,0.1-1.5C423.7,118.9,420.7,116.4,416.8,116.4 M425.2,128.2c0,1.7,0,3.5-0.4,5.1
			c1.8,0.6,3.3,0.9,5.1,0.9c4,0,8-2.1,8-6.1c0-2.8-2-3.9-6.4-4.7c-2.8-0.5-4-1.3-4-2.9c0-1.2,0.5-2.9,3.6-2.9c2.1,0,4.2,1.1,4.2,3
			v0.8h1c0-1.5,0.1-2.8,0.2-4.1c-1.4-0.5-3-0.9-4.7-0.9c-3.4,0-6.8,1.4-6.8,5.3c0,2.2,1.3,3.3,3.1,4c1.7,0.7,3.7,1.1,5.3,1.5
			c1.1,0.3,1.7,1.2,1.7,2.4c0,2-2,3.3-4.3,3.3c-2.1,0-4.7-0.8-4.7-3.1v-1.5L425.2,128.2L425.2,128.2z M447.2,117.6
			c2.6,0,3.9,2.8,3.9,6.2c-2.6,0.1-5.7,0.2-8.7-0.1C442.2,119.7,444.4,117.6,447.2,117.6 M447.4,116.4c-1.2,0-2.3,0.4-3.6,1
			c-0.8,0.4-1.6,0.9-2.3,1.5c-1.7,1.3-2.6,3.4-2.6,6.9c0,4.9,2.9,8.4,8.4,8.4c2.5,0,5.6-1.6,5.8-2l0.7-1.2l-0.5-0.4
			c-1.4,0.8-2.8,1.7-4.5,1.7c-4.5,0-6.6-2.9-6.6-7.2h5.3c2.2,0,4.4-0.1,6.6-0.5c0.1-0.5,0.1-1,0.1-1.5
			C454.3,118.9,451.4,116.4,447.4,116.4 M464.9,125.7c0,6.7,3.6,8.5,9.8,8.5c7.4,0,10.3-3.1,10.3-10.9v-10.5c0-1.4,0.1-2.3,0.3-2.7
			c0.2-0.4,0.6-0.5,1.5-0.5l1.6-0.1v-1.1c-1.6,0-2.9,0.1-4.4,0.1c-1.3,0-2.8-0.1-4.2-0.1v1.1l1.6,0.1c0.9,0.1,1.3,0.2,1.5,0.5
			c0.3,0.4,0.3,1.3,0.3,2.7v11.6c0,6-3.6,7.5-7.5,7.5c-4.8,0-7.5-1.5-7.5-6.6v-12.5c0-1.4,0.1-2.3,0.3-2.7c0.2-0.4,0.7-0.5,1.5-0.5
			l1.7-0.1v-1.1c-1.9,0.1-3.6,0.1-5.3,0.1c-1.8,0-3.5,0-5.4-0.1v1.1l1.7,0.1c0.9,0,1.3,0.2,1.5,0.5c0.3,0.4,0.3,1.3,0.3,2.7
			L464.9,125.7z M493.3,122c0-1.5,2.2-3.4,4.5-3.4c2.5,0,4.2,1.6,4.2,4.6v10.3c0.8,0,1.9-0.1,2.9-0.1c1,0,2.1,0.1,3,0.1v-1.1
			l-1.5-0.1c-0.6,0-1-0.2-1.2-0.5c-0.1-0.4-0.2-1.1-0.2-2.1v-7c0-4-1.8-6.3-6-6.3c-1.5,0-2.1,0.2-2.9,0.9l-2.7,2.3h-0.1v-3.1
			l-0.3-0.1c-1.3,0.6-3.5,1.3-5.7,1.5v1h1.3c0.8,0,1.1,0.1,1.3,0.4c0.2,0.3,0.3,1.1,0.3,2.3v8.2c0,1,0,1.7-0.2,2.1
			c-0.1,0.3-0.5,0.5-1.2,0.5l-1.6,0.1v1.1c1.3,0,2.7-0.1,4.5-0.1c1.8,0,3.2,0.1,4.5,0.1v-1.1l-1.6-0.1c-0.6,0-1-0.2-1.2-0.5
			c-0.1-0.4-0.2-1.1-0.2-2.1L493.3,122z M513.9,116.5l-0.3-0.1c-1.3,0.6-3.5,1.3-5.7,1.5v1h1.3c0.8,0,1.1,0.1,1.3,0.4
			c0.2,0.3,0.3,1.1,0.3,2.3v8.2c0,1,0,1.7-0.2,2.1c-0.1,0.3-0.5,0.5-1.2,0.5l-1.7,0.1v1.1c1.3,0,2.8-0.1,4.6-0.1
			c1.8,0,3.2,0.1,4.5,0.1v-1.1l-1.7-0.1c-0.6,0-1-0.2-1.2-0.5c-0.1-0.4-0.2-1.1-0.2-2.1L513.9,116.5z M512.2,108.5c-1.1,0-2,1-2,2
			c0,1.1,1,2,2,2c1.1,0,2-1,2-2C514.3,109.4,513.3,108.5,512.2,108.5 M532.6,120.3c0.5-1.1,1.1-2.4,2-2.4l1.1-0.1v-1
			c-1.1,0-2.3,0.1-3.4,0.1c-1.1,0-2.3-0.1-3.4-0.1v1l1.5,0.1c1.1,0,1.2,1.1,0.2,3.6l-1.5,3.9c-0.7,1.7-1.5,3.4-2.3,5.1l-4.3-10.5
			c-0.6-1.5-0.4-2,0.6-2.1l1.8-0.1v-1c-1.4,0-2.8,0.1-4.2,0.1c-1.4,0-2.8-0.1-4.3-0.1v1l1.2,0.1c0.7,0,0.9,0.7,1.1,1.2l6.3,14.7h1.8
			c0.5-1.2,0.9-2.6,1.5-4L532.6,120.3z M544.4,117.6c2.6,0,3.9,2.8,3.9,6.2c-2.6,0.1-5.7,0.2-8.7-0.1
			C539.4,119.7,541.6,117.6,544.4,117.6 M544.5,116.4c-1.2,0-2.3,0.4-3.6,1c-0.8,0.4-1.6,0.9-2.3,1.5c-1.7,1.3-2.6,3.4-2.6,6.9
			c0,4.9,2.9,8.4,8.4,8.4c2.5,0,5.6-1.6,5.8-2l0.7-1.2l-0.5-0.4c-1.4,0.8-2.8,1.7-4.5,1.7c-4.5,0-6.6-2.9-6.6-7.2h5.3
			c2.2,0,4.4-0.1,6.6-0.5c0.1-0.5,0.1-1,0.1-1.5C551.5,118.9,548.5,116.4,544.5,116.4 M555.3,129.7c0,1,0,1.7-0.2,2.1
			c-0.1,0.3-0.5,0.5-1.2,0.5l-1.7,0.1v1.1c1.3,0,2.8-0.1,4.5-0.1c1.8,0,3.2,0.1,5.1,0.1v-1.1l-1.9-0.1c-0.8,0-1.4-0.2-1.5-0.5
			c-0.1-0.4-0.2-1.1-0.2-2.1v-6.2c0-2.3,1.6-4,3.2-4c1.3,0,2.1,0.8,2.5,1.7h0.8l0.3-4.4c-0.3-0.2-1.1-0.4-1.7-0.4
			c-0.9,0-2.2,0.4-3.1,1.5l-2,2.3h-0.1v-3.7l-0.3-0.1c-1.3,0.6-3.5,1.3-5.7,1.5v1h1.3c0.8,0,1.1,0.1,1.4,0.4
			c0.2,0.3,0.3,1.1,0.3,2.2L555.3,129.7z M566.2,128.2c0,1.7,0,3.5-0.4,5.1c1.8,0.6,3.4,0.9,5.1,0.9c4,0,8-2.1,8-6.1
			c0-2.8-2-3.9-6.4-4.7c-2.8-0.5-4-1.3-4-2.9c0-1.2,0.5-2.9,3.6-2.9c2.1,0,4.2,1.1,4.2,3v0.8h1c0-1.5,0.1-2.8,0.2-4.1
			c-1.4-0.5-3-0.9-4.7-0.9c-3.4,0-6.8,1.4-6.8,5.3c0,2.2,1.3,3.3,3.1,4c1.7,0.7,3.7,1.1,5.3,1.5c1.1,0.3,1.7,1.2,1.7,2.4
			c0,2-2,3.3-4.3,3.3c-2.1,0-4.7-0.8-4.7-3.1v-1.5L566.2,128.2L566.2,128.2z M585.9,116.5l-0.3-0.1c-1.3,0.6-3.5,1.3-5.7,1.5v1h1.3
			c0.8,0,1.1,0.1,1.3,0.4c0.2,0.3,0.3,1.1,0.3,2.3v8.2c0,1,0,1.7-0.2,2.1c-0.1,0.3-0.5,0.5-1.2,0.5l-1.7,0.1v1.1
			c1.3,0,2.8-0.1,4.5-0.1c1.8,0,3.2,0.1,4.5,0.1v-1.1l-1.7-0.1c-0.6,0-1-0.2-1.2-0.5c-0.1-0.4-0.2-1.1-0.2-2.1L585.9,116.5z
			 M584.2,108.5c-1.1,0-2,1-2,2c0,1.1,0.9,2,2,2c1.1,0,2-1,2-2C586.3,109.4,585.3,108.5,584.2,108.5 M592.1,119.5V130
			c0,2.9,1.6,3.9,3.6,3.9c0.8,0,2-0.1,2.4-0.4l1.7-1.9l-0.5-0.6c-0.5,0.3-1.2,0.7-2.2,0.7c-1.5,0-2-0.8-2-2.5v-9.5h4.7l0.3-2l-5,0.2
			v-1.4c0-1.5,0.2-3.6,0.4-5.2l-0.4-0.4c-0.6,0.4-1.8,1-3.1,1.4c0.1,1,0.1,1.9,0.1,2.9v2.5l-2.8,1.3v0.8L592.1,119.5z"/>
		<path class="st0" d="M610.1,130.3l-4.2-10.1c-0.8-2-0.1-2.3,0.9-2.4l1.4-0.1v-1c-1.4,0-2.8,0.1-4.2,0.1c-1.4,0-2.8-0.1-4.2-0.1v1
			l0.7,0.1c0.8,0.1,1.3,0.4,1.9,1.8l6,14.7l-0.8,2.2c-0.7,1.7-1.9,4.6-4,4.8c-0.5,0-1.4-0.4-1.9-0.8h-0.5l-0.9,2.7
			c0.4,0.2,1.2,0.5,1.8,0.5c3.1,0,4.4-1.8,5.5-4.5l7.4-17c1.4-3.2,2.2-4.3,3.1-4.4l1-0.1v-1c-1.2,0-2.3,0.1-3.5,0.1
			c-1.2,0-2.3-0.1-3.4-0.1v1l0.9,0.1c1.3,0.1,1.9,0.5,1.3,1.9L610.1,130.3z M633.1,134.2c5.6,0,9.5-3.9,9.5-9.5
			c0-4.7-3.6-8.3-8.3-8.3c-5.9,0-9.3,3.8-9.3,9.3C625.1,130.7,628.5,134.3,633.1,134.2 M633.5,117.6c3.5,0,5.7,4,5.7,8.7
			c0,3.4-1.4,6.7-4.7,6.7c-4.7,0-6-5.1-6-8.9C628.5,120.7,629.7,117.6,633.5,117.6 M655.1,107.4c-0.5-0.2-1.1-0.4-1.6-0.4
			c-1,0-2.3,0.4-3.3,1.5l-2.1,2.4c-1,1.2-1.5,2.8-1.5,5.2v1.5l-2.5,1.1v0.8l2.5-0.2v10.3c0,1,0,1.7-0.2,2.1
			c-0.1,0.3-0.5,0.5-1.2,0.5l-1.7,0.1v1.1c1.3,0,2.8-0.1,4.5-0.1c1.8,0,3.2,0.1,4.5,0.1v-1.1l-1.7-0.1c-0.6,0-1-0.2-1.2-0.5
			c-0.1-0.4-0.2-1.1-0.2-2.1v-10.3h4.5l0.3-1.9l-4.8,0.1v-3.1c0-4.1,0.4-5.2,2.7-5.2c0.9,0,1.7,0.4,2.4,1l0.4-0.2L655.1,107.4z
			 M687.6,112.8c0-1.4,0.1-2.3,0.3-2.7c0.2-0.4,0.7-0.5,1.5-0.5l1.8-0.1v-1.1c-1.9,0.1-3.6,0.1-5.3,0.1c-1.8,0-3.5,0-5.4-0.1v1.1
			l1.7,0.1c0.9,0,1.3,0.2,1.5,0.5c0.2,0.4,0.3,1.3,0.3,2.7v6.5c-0.4,0-1.4,0.1-3,0.1h-8.5c-1.6,0-2.6,0-3-0.1v-6.5
			c0-1.4,0.1-2.3,0.3-2.7c0.2-0.4,0.7-0.5,1.5-0.5l1.7-0.1v-1.1c-1.9,0.1-3.6,0.1-5.3,0.1c-1.8,0-3.5,0-5.4-0.1v1.1l1.7,0.1
			c0.9,0,1.3,0.2,1.5,0.5c0.3,0.4,0.3,1.3,0.3,2.7v16.3c0,1.4-0.1,2.3-0.3,2.7c-0.2,0.4-0.6,0.5-1.5,0.5l-1.7,0.1v1.1
			c1.9-0.1,3.6-0.1,5.4-0.1c1.7,0,3.4,0,5.3,0.1v-1.1l-1.7-0.1c-0.9,0-1.3-0.2-1.5-0.5c-0.3-0.4-0.3-1.3-0.3-2.7V121
			c0.4,0,1.4-0.1,3-0.1h8.5c1.6,0,2.6,0,3,0.1v8.1c0,1.4-0.1,2.3-0.3,2.7c-0.2,0.4-0.7,0.5-1.5,0.5l-1.7,0.1v1.1
			c1.9-0.1,3.6-0.1,5.4-0.1c1.7,0,3.4,0,5.3,0.1v-1.1l-1.8-0.1c-0.9,0-1.3-0.2-1.5-0.5c-0.3-0.4-0.3-1.3-0.3-2.7V112.8z M700,134.2
			c5.6,0,9.5-3.9,9.5-9.5c0-4.7-3.6-8.3-8.3-8.3c-5.9,0-9.3,3.8-9.3,9.3C692,130.7,695.5,134.3,700,134.2 M700.5,117.6
			c3.5,0,5.7,4,5.7,8.7c0,3.4-1.4,6.7-4.7,6.7c-4.7,0-6-5.1-6-8.9C695.4,120.7,696.6,117.6,700.5,117.6 M715.9,122
			c0-1.5,2.3-3.4,4.5-3.4c2.5,0,4.2,1.6,4.2,4.6v10.3c0.8,0,1.9-0.1,2.9-0.1c1,0,2.1,0.1,3,0.1v-1.1l-1.5-0.1c-0.6,0-1-0.2-1.2-0.5
			c-0.1-0.4-0.2-1.1-0.2-2.1v-7c0-4-1.7-6.3-6-6.3c-1.5,0-2.1,0.2-2.9,0.9l-2.7,2.3h-0.1v-3.1l-0.3-0.1c-1.3,0.6-3.5,1.3-5.7,1.5v1
			h1.3c0.8,0,1.1,0.1,1.3,0.4c0.2,0.3,0.2,1.1,0.2,2.3v8.2c0,1,0,1.7-0.2,2.1c-0.1,0.3-0.6,0.5-1.2,0.5l-1.6,0.1v1.1
			c1.3,0,2.7-0.1,4.5-0.1c1.8,0,3.2,0.1,4.5,0.1v-1.1l-1.6-0.1c-0.6,0-1-0.2-1.2-0.5c-0.1-0.4-0.2-1.1-0.2-2.1V122z M748.6,119.7
			l0.9-1.5l-0.1-0.4l-5.2,0.1c-1.2-1.1-2.8-1.5-4.4-1.5c-1.4,0-3.6,0.5-5.3,1.6c-1.6,1.1-2.8,2.6-2.8,4.9c0,3.8,3.1,4.8,4.3,4.9v0.1
			l-2.8,2.1c-0.3,0.4-0.5,1-0.5,1.5c0,1.1,0.8,1.7,2.4,2.1l-3.2,1.7c-0.8,0.7-1,1.9-1,2.9c0,3.2,3.4,5.5,7.8,5.5
			c6.2,0,9.9-4,9.9-7.8c0-1.8-1-4.5-4.3-4.5h-5.8c-1.1,0-2.8-0.1-2.8-1.5c0-0.8,1.2-1.5,1.7-2c0.3,0,0.5,0.1,0.8,0.1
			c1.7,0,3.5-0.6,5.1-1.7c1.5-1,2.4-2.5,2.4-4.5c0-0.7-0.1-1.4-0.4-2L748.6,119.7L748.6,119.7z M742.6,122.9c0,2.2-1.6,3.9-3.7,3.9
			c-2.3,0-4.1-1.6-4.1-4.8c0-2.4,1.2-4.3,3.6-4.3C741.4,117.6,742.6,120.2,742.6,122.9 M739,142.6c-2.9,0-5.3-1.6-5.3-4.7
			c0-2.3,2-3.7,3.1-3.8c1.6-0.1,2.9-0.1,3.9-0.1c4.1,0,5.1,1.1,5.1,3.3C745.7,140.1,743,142.6,739,142.6 M763.6,121.6l0.4-0.2
			l12.7,12.2c1.1,0,2-0.1,2.9-0.1c0.8,0,1.7,0.1,2.4,0.1v-1.1l-0.8-0.1c-0.7-0.1-1.3-0.7-2.2-1.5l-12-11.3l9.7-8.7
			c0.9-0.8,1.9-1.3,2.8-1.4l1.5-0.1v-1.1c-0.9,0-1.9,0.1-2.9,0.1c-1.1,0-2.1-0.1-3.2-0.1v1c0,0.3-0.5,0.9-1.1,1.4l-10.1,9.8v-7.8
			c0-1.4,0.1-2.3,0.3-2.7c0.2-0.4,0.7-0.5,1.5-0.5l1.8-0.1v-1.1c-1.9,0.1-3.6,0.1-5.3,0.1c-1.8,0-3.5,0-5.4-0.1v1.1l1.7,0.1
			c0.9,0,1.3,0.2,1.5,0.5c0.3,0.4,0.3,1.3,0.3,2.7v16.3c0,1.4-0.1,2.3-0.3,2.7c-0.2,0.4-0.7,0.5-1.5,0.5l-1.7,0.1v1.1
			c1.9-0.1,3.6-0.1,5.4-0.1c1.7,0,3.4,0,5.3,0.1v-1.1l-1.8-0.1c-0.9,0-1.3-0.2-1.5-0.5c-0.2-0.4-0.3-1.3-0.3-2.7L763.6,121.6z"/>
		<path class="st0" d="M789.4,134.2c5.6,0,9.5-3.9,9.5-9.5c0-4.7-3.6-8.3-8.3-8.3c-5.8,0-9.3,3.8-9.3,9.3
			C781.4,130.7,784.8,134.3,789.4,134.2 M789.8,117.6c3.5,0,5.7,4,5.7,8.7c0,3.4-1.4,6.7-4.7,6.7c-4.7,0-6-5.1-6-8.9
			C784.8,120.7,786,117.6,789.8,117.6 M805.2,122c0-1.5,2.3-3.4,4.5-3.4c2.5,0,4.2,1.6,4.2,4.6v10.3c0.8,0,1.9-0.1,2.9-0.1
			c1,0,2.1,0.1,3,0.1v-1.1l-1.5-0.1c-0.6,0-1-0.2-1.2-0.5c-0.1-0.4-0.2-1.1-0.2-2.1v-7c0-4-1.8-6.3-6-6.3c-1.5,0-2.1,0.2-2.9,0.9
			l-2.7,2.3h-0.1v-3.1l-0.3-0.1c-1.3,0.6-3.5,1.3-5.7,1.5v1h1.3c0.8,0,1.1,0.1,1.3,0.4c0.2,0.3,0.3,1.1,0.3,2.3v8.2
			c0,1,0,1.7-0.2,2.1c-0.1,0.3-0.5,0.5-1.2,0.5l-1.6,0.1v1.1c1.3,0,2.7-0.1,4.5-0.1c1.8,0,3.2,0.1,4.5,0.1v-1.1l-1.6-0.1
			c-0.6,0-1-0.2-1.2-0.5c-0.2-0.4-0.2-1.1-0.2-2.1L805.2,122z M837.9,119.7l0.9-1.5l-0.1-0.4l-5.2,0.1c-1.2-1.1-2.8-1.5-4.4-1.5
			c-1.4,0-3.6,0.5-5.3,1.6c-1.6,1.1-2.8,2.6-2.8,4.9c0,3.8,3.1,4.8,4.3,4.9v0.1l-2.8,2.1c-0.3,0.4-0.5,1-0.5,1.5
			c0,1.1,0.8,1.7,2.4,2.1l-3.2,1.7c-0.8,0.7-1,1.9-1,2.9c0,3.2,3.4,5.5,7.8,5.5c6.1,0,9.9-4,9.9-7.8c0-1.8-1-4.5-4.3-4.5h-5.8
			c-1.1,0-2.8-0.1-2.8-1.5c0-0.8,1.2-1.5,1.7-2c0.3,0,0.5,0.1,0.8,0.1c1.7,0,3.5-0.6,5.1-1.7c1.5-1,2.4-2.5,2.4-4.5
			c0-0.7-0.1-1.4-0.4-2L837.9,119.7L837.9,119.7z M831.9,122.9c0,2.2-1.6,3.9-3.7,3.9c-2.3,0-4.1-1.6-4.1-4.8c0-2.4,1.2-4.3,3.6-4.3
			C830.8,117.6,831.9,120.2,831.9,122.9 M828.3,142.6c-2.9,0-5.3-1.6-5.3-4.7c0-2.3,2-3.7,3.1-3.8c1.6-0.1,2.9-0.1,3.9-0.1
			c4.1,0,5.1,1.1,5.1,3.3C835,140.1,832.3,142.6,828.3,142.6"/>
	</g>
	<path class="st1" d="M167.1,136.4c1.2,0,6.8-2,9-3.2c11.7-6.2,22-14.6,28.6-26.2c5.4-9.3,5.7-20.8,6.6-31.3c1.1-13.5,1-27,0.8-40.6
		c0-1-19.4-3.1-21.4-3.3c-7.9-0.7-18.4-1.2-23.6-1.2c-5.3,0-15.8,0.5-23.6,1.2c-2,0.2-21.4,2.3-21.4,3.3
		c-0.2,13.5-0.3,27.1,0.8,40.6c0.9,10.4,1.2,21.9,6.6,31.3c6.7,11.6,16.9,20,28.6,26.2C160.3,134.4,165.9,136.4,167.1,136.4"/>
	<path class="st2" d="M193.6,86.7c0,0,0.1,0,0.1,0C193.7,86.7,193.7,86.7,193.6,86.7L193.6,86.7z M191.1,88.3c0.1,0,0.2,0.1,0.2,0.1
		C191.2,88.4,191.2,88.4,191.1,88.3L191.1,88.3z M206.2,63.6c0,0,0-0.7,0.1-0.7c0.5-0.2,2.7-1,3.1-3.8c0.1-0.4,0.1-0.9,0-1.4
		l-0.1,0.1c-0.4,0.4-1.8,1.7-2.5,1.5c-0.2,0-0.3-0.2-0.4-0.4c0-2.8-0.2-5-0.5-7.8c0.8-0.4,2.4-1.7,2.4-4.3c0-0.4,0-0.7-0.1-1.1
		l-0.1,0.2c-0.4,0.5-1.6,1.8-2.2,1.7c-0.2,0-0.3-0.1-0.4-0.3l0-0.4c-0.5-5.9-1.8-8.8-4.2-10c0,0-0.2-0.1-0.2-0.1
		c0,0,0.1,0.2,0.2,0.4c0.4,0.5,0.9,1.4,1.2,2.4c0.4,1.8,0.5,3.2,0.5,4.3c0,1.3-0.2,2.3-0.4,3.1c-0.3,0.6-0.8,0.9-1.3,1.1
		c-1.3,0.3-2.8-1.2-3.3-2.3c0,0,0-0.1-0.1-0.1c-0.1,0-0.3,0.3-0.4,0.5c-0.4,1.6,0.1,3.5,1.2,4.3c0.4,0.3,1,0.5,1.8,0
		c0.4-0.3,0.7-0.4,0.9-0.3c0.1,0,0.2,0.1,0.2,0.3c-0.5,1.4-1.1,2.8-1.7,4.2c-0.4,0.3-0.8,0.5-1.2,0.5c-1.5,0.1-2.7-1.7-3-3.1
		c0-0.1,0-0.1-0.1-0.1c-0.1,0-0.4,0.3-0.5,0.5c-0.8,1.6-0.6,3.7,0.4,4.7c0.4,0.4,1,0.7,1.9,0.3c0.5-0.2,0.8-0.3,1-0.2
		c0.1,0,0.1,0.1,0.2,0.3c-0.7,1.4-1.5,2.8-2.4,4.1c-0.3,0.2-0.7,0.3-1.1,0.3c-1.6,0-2.6-1.8-2.7-3.1c0,0,0-0.1,0-0.1
		c-0.1,0-0.4,0.3-0.6,0.5c-1,1.5-1.1,3.5-0.3,4.5c0.5,0.6,1.2,0.7,2,0.4c0.5-0.2,0.8-0.2,0.9-0.1c0.1,0,0.1,0.1,0.1,0.2
		c-0.8,1.1-1.8,2.3-2.7,3.4c-0.6,0.4-1.3,0.6-1.9,0.5c-1.7-0.3-2.7-2.7-2.7-4.3c0-0.1,0-0.1,0-0.1c-0.1-0.1-0.5,0.2-0.7,0.4
		c-1.3,1.6-1.6,4.1-0.8,5.5c0.3,0.5,0.9,1.1,2.1,0.8c0.6-0.1,0.9-0.1,1.1,0c0.1,0.1,0,0.2-0.1,0.4c0,0-2.7,2.5-2.8,2.5
		c-0.7,0.4-1.7,0.9-2.8,0.5c-1.8-0.7-2.5-3.6-2.2-5.4c0-0.1,0-0.1,0-0.2c-0.1-0.1-0.6,0.2-0.9,0.4c-1.8,1.5-2.7,4.3-2,6.1
		c0.3,0.7,0.8,1.4,2.2,1.4c0.7,0,1.1,0.1,1.2,0.3c0.1,0.2-0.1,0.4-0.5,0.8c-0.4,0.2-0.8,0.5-1.1,0.9c-0.8,1-1.2,1.8-1.3,2.8l-0.1,1
		c-0.1,0.8-0.1,1.6-0.3,2.4c-0.1,0.7-0.4,1.4-0.7,2c-1.7,3.1-5.7,4.7-9.9,5.4V86c5.1-0.2,7.3-2.4,7.3-7.4c0-4.3-1.5-6.1-5.1-6.2
		c-0.7,0-1.5,0.1-2.2,0.3v-3.3c2.6-1.2,5.5-2.5,8.5-3.2c7-1.8,12.5-5.6,14.5-9.7c0.3-0.6,0.5-1.2,0.6-1.8c-0.4,0.2-5,3.2-8.5,3.9
		l-0.5,0.1c-0.5,0.1-1,0.2-1.2,0c-0.1-0.1-0.2-0.2-0.2-0.5c0-1.9,1-3.3,2.9-4.1l0.2-0.1c4.2-1.8,7.5-3.2,9.1-5.4
		c0.4-0.6,0.7-1.2,0.9-1.9c-0.4,0.2-5.2,2.8-8.4,3.2l-0.2,0c-0.4,0.1-1,0.2-1.3-0.1c-0.2-0.2-0.2-0.5-0.1-0.9c0.4-1.4,1-2.3,2.1-2.9
		c1.2-0.7,2.6-1.3,3.8-1.9c2.2-1,4.1-1.8,5.1-3c0-0.1,0.1-0.1,0.2-0.2c0,0,0,0,0-0.1c0.2-0.3,0.3-0.5,0.4-0.8l-4.6,1.4l-0.9,0.3
		c-1.3,0.4-2.7,0.8-3.1,0.4c-0.2-0.2-0.2-0.4-0.1-0.8c0.2-0.8,0.4-1.2,0.8-1.8c1.7-2.4,5.2-5,9.3-4.3c0.7,0.1,1,0.1,1.1,0
		c0,0-0.1-0.2-0.6-0.4c-3.1-1.1-6.1-1-8.7,0.3c-4.8,2.5-8.8,9.1-11.8,19.8c-1.7,6.1-5.5,8.3-9.3,10V51.5c1.4-0.6,2.6-1.3,3.7-2.4
		c2.9-2.9,4-6.6,2.8-9.8c-1-2.6-3.3-4.4-5.8-4.6c-0.2,0-0.4,0-0.6,0v-2c-4.8,0-14.8,0.4-22.6,1.2c-2.8,0.3-20.4,2.3-20.4,3.1
		c-0.1,4.6-0.1,9.2-0.1,13.7c0,8.5,0.2,16.9,0.9,25.3l0.3,3.3c0.7,9.2,1.5,18.8,6,26.7c5.8,10.1,15,18.6,27.4,25.2
		c0.8,0.4,4.3,2.2,7.3,2.9c0,0,0,0,0,0c0.1,0,0.3,0.1,0.4,0.1c0.3,0,0.6,0.1,0.8,0.1v-14.5c4.1,0.1,10.5,0.1,12.3-0.5
		c1.6-0.6,2.7-1.8,3-3.5c0.3-2-0.5-4.2-1.9-5.3c-0.2-0.1-0.5-0.2-0.5-0.1c-0.1,0.1,0,0.1,0.1,0.3c0.2,0.3,0.4,0.7,0.4,1.7
		c0,0.9-0.3,1.6-0.9,2.1c-1.6,1.5-4.9,1.3-4.9,1.3l-3.8,0h-3.7c0,0,0.1,0,0.1,0h-0.1c2.1-0.5,3.6-2,4.3-3.2c1.6-2.9,0.3-4.9-0.2-5.5
		c-0.1-0.1-0.1-0.1-0.1-0.1h0c0,0,0,0,0,0c0.3,0,0.5,0,0.7,0c-0.2,0-0.5,0-0.7,0c0,0,0,0,0,0c1,0,1.8-0.1,2.6-0.3
		c-0.6,0.1-1.2,0.2-1.9,0.2c7.8-0.4,9.5-7.5,10.4-11.4l0.2-0.6c0.3-1.1,1-3.2,2.7-3.7c1.1-0.3,1.8-0.8,2.4-1.1l0.6-0.3
		c0,0,0.2-0.1,0.2-0.1c1,0,1,0.9,0.9,1.4c0,0.2,0,0.4,0.1,0.5c0,0,0.1,0,0.2-0.1c0.8-0.5,1.3-2.1,1.4-3c0-0.1,0-0.1,0-0.2l0,0l0,0
		c1.1,0.4,1.2,1,1.2,1.4c0,0.1,0,0.2,0.1,0.2c0,0,0.1,0,0.3-0.2c0.8-0.6,1-2.1,1-2.9v0c0,0,0,0,0,0c1.3,0.1,1.4,0.8,1.5,1.2
		c0,0.1,0,0.2,0.1,0.2c0,0,0,0,0.2-0.2c0.7-0.7,0.7-2.3,0.7-2.9c0,0,0-0.1,0-0.1h0v0c0.9,0.1,1,0.7,1.2,1.1c0,0.1,0.1,0.3,0.1,0.3
		c0,0,0.1,0,0.2-0.2c0.8-1,0.7-2.5,0.6-3.1c0,0,0-0.1,0-0.1l0,0c0,0,0,0,0,0c0.9,0,1.1,0.6,1.2,0.9c0,0.1,0.1,0.2,0.1,0.2
		c0,0,0.1,0,0.2-0.2c0.6-0.8,0.6-2.3,0.4-3.1c1.2-1.4,1.9-2.5,2.1-3.4c0.2-0.6,0.3-0.7,0.3-0.7c0.1,0,0.2,0.4,0.2,0.6
		c-0.2,2.1-0.6,4.7-1.2,7.4c0,0,0,0,0,0c0,0,0,0,0,0.1c-0.1,0.4-0.2,0.8-0.3,1.1c0,0,0,0,0,0c0,0,0,0,0,0c-0.4-0.4-1.4-0.5-1.6-0.3
		c-0.1,0.1,0,0.3,0.1,0.4c0.4,0.4,0.7,1.3,0.7,2c0,0.1,0,0.2,0,0.3l0,0c0,0,0,0,0,0c-0.5-0.2-1.2-0.3-1.4-0.1
		c-0.1,0.1,0,0.3,0.1,0.4c0.5,0.5,0.7,1.6,0.6,2.4c0,0.1,0,0.3,0,0.4c0,0,0,0,0,0c0,0,0,0,0,0c-0.4-0.4-1.4-0.5-1.6-0.3
		c-0.1,0.1,0,0.3,0.1,0.4c0.4,0.5,0.5,1.7,0.5,2.5c0,0.1,0,0.3,0,0.4c0,0,0,0,0,0c0,0,0,0,0,0c-0.4-0.4-1.2-0.6-1.4-0.5
		c-0.1,0.1,0,0.2,0.1,0.4c0.6,0.8,0.4,2.3,0.2,2.9c-2.5,5.6-5.3,8.4-8.3,8.5c-2.5,0.1-3.8-2.1-3.9-3.7c-0.2-2.3,1.9-3.8,3.3-4.3
		c0.9-0.4,1.5,0.1,1.8,0.4c0.8,0.9,0.7,1.6,0.5,1.9c-0.3,0.5-0.9,0.7-1.4,0.7c-0.7-0.1-1.3,0.1-1.5,0.7c-0.2,0.6-0.1,1.2,0.4,1.5
		c0.7,0.5,1.7,0.5,2.7,0.1c1.2-0.6,2.3-1.8,2.4-2.8c0.2-0.9-0.1-2.6-0.8-3.3c-1.5-2.1-3.5-2.7-5.2-1.7c-3,1.9-4.7,4-4.9,6.2
		c-0.2,2,0.9,4,3.2,6c2.7,2.4,7.1,0.9,9.1-1.2c0,0,0.2-0.2,0.3-0.2c0.5,0.2,2.9,0.9,5.1-1.2c0.3-0.3,0.5-0.6,0.8-0.9l-0.2,0
		c-0.6,0.1-2.3,0.2-2.8-0.3c-0.1-0.1-0.1-0.3,0-0.6c1.2-1.7,2.4-3.9,3.4-6.5c0.5,0,2.9-0.3,4-2.9c0.2-0.4,0.3-0.8,0.4-1.4l-0.2,0.1
		c-0.6,0.3-2.2,1.3-2.7,0.8c-0.2-0.1-0.2-0.4-0.1-0.8c0.6-2.1,1.2-4.4,1.7-6.9c0.7-0.1,3-0.7,3.6-3.6c0.1-0.4,0.1-0.7,0.2-1.2
		l-0.2,0.1c-0.6,0.4-2,1.4-2.7,1.1c-0.2-0.1-0.3-0.2-0.3-0.4c0.3-2.2,0.6-4.6,0.9-7.2c0.3-0.1,3.2-1.1,3.2-4.8c0-0.1,0-0.3,0-0.4
		c0,0-0.1,0.1-0.1,0.1c-0.5,0.5-1.8,1.7-2.5,1.5c-0.2,0-0.3-0.2-0.4-0.4l0.3-6L206.2,63.6z M167.1,36.8c2.3,0.8,3.6,2.7,3.4,5.1
		c-0.2,2.3-1.7,4.4-3.4,4.7V36.8z M167.1,74.8c0.3,0,0.6,0,0.9,0c2.3,0,3.3,1.1,3.3,3.5c0,1.7-0.5,3.5-4.2,3.6V74.8z M177.9,93.3
		L177.9,93.3c-1.5,2.5-3.3,4-8,4c0,0-1.2,0-2.8,0v-2.6h2.5c3.8,0,6.4-0.5,7.6-1.5c0.5-0.4,0.7-0.4,0.7-0.4
		C178,93,177.9,93.3,177.9,93.3 M203.5,56l-0.1,1.1c-1,16.1-6,21.9-10.8,25.4l-0.2,0.1c-1.5,1.1-3.2,2.4-6.3,3.4l-0.1,0
		c-0.6,0.2-2.4,0.8-2.8,1.6c-0.5,0.8-0.6,0.8-0.7,0.8c-0.2-0.1,0.2-1.2,0.3-1.4c0.3-0.7,0.9-1,2.1-1.5c2.1-1,2.4-2.3,2.4-2.9
		c0-1-0.7-1.9-1.6-2.2c-0.7-0.3-1.4-0.1-1.8,0.4c0.2,0.1,0.7,0.3,0.8,1.1c0.1,1.2-0.5,1.7-1.1,1.8c-0.7,0.1-1.5-0.4-1.6-1.3
		c-0.2-1.7,0.7-2.8,1.2-3.2c0.7-0.5,1.1-0.6,1.6-0.8c0,0,0.9-0.3,0.9-0.3c1.4-0.2,2.4,0.5,2.9,0.9c0.2,0.2,0.4,0.3,0.4,0.3l0.1-0.1
		c0.2-0.4-0.1-2.1-0.4-3l0-0.1l0.1,0c1.3-0.2,2,0.7,2.4,1.2c0.1,0.2,0.3,0.3,0.3,0.3c0,0,0.1,0,0.1-0.1c0.2-0.5-0.3-2.3-0.7-3.2
		c0,0,0,0,0-0.1l0,0c0,0,0,0,0,0c1.3-0.4,2.1,0.3,2.6,0.7c0.2,0.1,0.3,0.3,0.4,0.2l0.1-0.1c0.1-0.5-0.5-2.2-1-3c0,0,0.3-0.3,0.3-0.3
		c1.3-0.5,2.1,0,2.6,0.3c0.2,0.1,0.3,0.2,0.4,0.2l0.1-0.1c0.1-0.5-0.5-2-1-2.8c0,0,0.2-0.3,0.3-0.3c1-0.3,1.8-0.1,2.3,0.1
		c0.2,0.1,0.4,0.1,0.4,0.1c0,0,0.1-0.1,0.1-0.1c0.1-0.5-0.5-1.8-1-2.3c0,0,0.2-0.3,0.2-0.3c0.9-0.3,1.7-0.1,2.1,0.1l0.4,0.1
		c0,0,0.1-0.1,0.1-0.2c0-0.6-0.6-1.9-0.9-2.2c0,0,0,0,0,0h0c0,0,0,0,0,0c0.9-0.8,1.8-0.7,2.2-0.7l0.3,0c0,0,0,0,0-0.1
		c0-0.4-0.7-1.3-1.1-1.7c1.1-2,1.9-4,2.3-5.7c0.6-2.2,0.6-2.2,0.7-2.2C203.6,53.9,203.6,54.3,203.5,56 M190.9,74.4
		c0.1,0,0.1,0,0.2,0C191,74.3,190.9,74.3,190.9,74.4L190.9,74.4z M199,64.2c0.1-0.1,0.3-0.2,0.4-0.3C199.3,64.1,199.2,64.1,199,64.2
		L199,64.2z M199.4,91.3c0,0,0.1,0.1,0.1,0.1v0C199.5,91.3,199.4,91.3,199.4,91.3 M193.4,46.7c0,0-0.1,0.1-0.3,0.2
		C193.2,46.8,193.3,46.8,193.4,46.7C193.4,46.7,193.4,46.7,193.4,46.7 M195,40L195,40c0,0,0,0-0.1,0C195,40.1,195,40,195,40
		 M190.7,54.7c0,0-0.1,0.1-0.3,0.2C190.5,54.8,190.6,54.8,190.7,54.7C190.7,54.7,190.7,54.7,190.7,54.7 M168.3,115.4
		c-0.4,0.1-0.8,0.3-1.2,0.4h0.1C167.6,115.7,168,115.5,168.3,115.4 M198.4,82.9c-0.1,0-0.2-0.1-0.3-0.1c0,0,0,0,0,0
		C198.2,82.9,198.3,82.9,198.4,82.9 M198.3,94.3c0.1,0,0.1,0.1,0.1,0.1v0C198.4,94.3,198.3,94.3,198.3,94.3 M200.1,88.2
		c0.1,0,0.1,0.1,0.1,0.1v0C200.2,88.3,200.1,88.3,200.1,88.2 M200.9,85.7c0,0,0.1,0.1,0.1,0.1c0,0,0,0,0,0
		C201,85.8,200.9,85.7,200.9,85.7 M196,84.9L196,84.9c0.1,0,0.1,0,0.2,0C196.1,84.9,196.1,84.9,196,84.9"/>
	<path class="st1" d="M165.7,46.2c-0.4-0.4-0.4-2.4-0.4-2.4c0-2.5-2.1-3.4-3.9-3.4c-1.9,0-3.9,1-3.9,2.7l0,6.4
		c0,0.3-0.1,0.6-0.3,0.8c-0.2,0.2-0.5,0.2-0.7,0.2c-0.6,0-1.2-0.4-1.2-1v-3.4c0-3.9-4.4-4.5-7-4.5c-3.7,0-7.7,1.7-7.7,4.7l0,1.7
		l0,14c0,0.8-0.5,1.5-1,1.7c-0.4,0.2-0.8,0.3-1.1,0.1c-0.3-0.2-0.5-0.6-0.5-1.5c0-0.1,0-0.2-0.1-0.2c-0.1,0-0.3,0.1-0.5,0.5
		c-0.4,1.2-0.4,2.2,0.1,3.2c0.6,1.2,1.9,1.9,2.6,2.1l0,2.2h0c-2.5,0-5.5-1-5.5-5.5V42.8c0-3.3-1.4-4.4-2.5-4.8
		c-2.1-0.7-4.9,0.8-6.1,2.5c-1.2,1.8-0.9,3.4-0.1,4.3c0.8,1,2.2,1.4,3.5,0.9c0,0,0.2-0.2,0.2-0.3c0-0.1-0.1-0.2-0.3-0.2
		c-0.8-0.1-1.4-0.7-1.4-1.5c0-0.9,0.8-1.7,1.7-1.7c0.9,0,1.7,0.7,1.7,1.7v3.2l0,18.6c-2.5,0-3.2,2-3.2,3.2c0,1.9,1.3,2.6,1.4,2.7
		c0.1,0,0.2,0,0.3-0.1c0.1-0.1,0.1-0.2,0-0.4c-0.3-0.6-0.3-1.2,0-1.6c0.4-0.5,1.2-0.7,1.8-0.6c0.4,0.1,0.7,0.2,0.7,0.4
		c0.9,2.6,3.3,4,7.4,4.1c0.1,0,0.2,0.1,0.4,0.2l0,1.2c-1.2,0.5-4,2.3-3.9,7.5c0.1,4,0.9,9.5,1.6,10c0.1,0,0.1,0.1,0.2,0
		c3.3-0.9,8.3-1,10.8,0.5c0.3,0.2,0.5,0.5,0.5,0.7c0,0.1-0.1,0.2-0.2,0.3c-0.1,0-0.3,0-0.4-0.1c-1.1-1.1-4.2-1.2-5.1-1.2
		c-3.5-0.1-10.6,1-12.7,5.5c-1.2,2.6,1.2,7.7,2.5,9.3c0.1,0.1,0.3,0.1,0.4,0.1c0.1,0,0.2-0.1,0.1-0.2c-0.5-2.6,0.5-5.1,2.9-7.1
		c2.9-2.5,7-3.6,9.7-2.6c0.4,0.1,0.6,0.4,0.6,0.6c0,0.1,0,0.2-0.1,0.3c-0.1,0-0.2,0.1-0.3,0c-3.5-1.5-7,0.8-7.1,0.8
		c1.5,9,12.5,8.8,20.5,8.6l2.7,0c0,0,3.1,3,2.7,5.6c-0.2,1-0.9,1.8-2.1,2.4c-1.2,0.6-6.1,0.3-6.6-0.1c-0.3-0.2-0.4-0.9-0.3-1.6
		c0.2-1.2,0.9-2.9,2.4-3.5c0.2,0,0.2-0.1,0.2-0.2c0-0.2-0.6-0.3-0.9-0.3c-2.8,0.4-4.8,1.8-5.5,3.9c-0.2,0.5-0.2,0.7-0.2,1.2
		c-0.1,0.9-0.3,0.9-1.5,1l-0.6,0.1c-2.2,0.3-3.5,1.3-3.7,3.1c-0.2,1.4,0.2,2.9,1.2,4c0.8,0.9,1.9,1.4,2.9,1.4c0.1,0,0.2-0.1,0.2-0.2
		c0-0.1,0-0.2-0.3-0.4c-1.2-0.7-1.6-1.9-1.3-2.7c0.2-0.9,1.1-1.5,2.3-1.5c0,0,0.5,0,0.5,0.3l0,0.3l0.1,1c0.5,2.7,2.6,5.1,5.1,5.8
		c0.1,0,0.3,0,0.3-0.2c0-0.1,0-0.3-0.4-0.5c-1.3-1-1.8-2.9-1.8-4.4c0-1,0.2-1.8,0.5-2.1c0.6-0.4,2.6-0.7,3.6,0.3
		c1,1,1.5,1.9,1.3,2.6c-0.1,0.4-0.5,0.8-1.2,0.9c-0.1,0-0.1,0.2-0.1,0.3c0,0,0.1,0.2,0.3,0.2c2.7-0.4,3.6-2.5,3.6-4.2
		c0,0,0-0.1,0-0.2c0.1-0.1,0.2-0.1,0.3-0.1l2,0c0.3,0,0.7,0,1.1,0V97.2l-7.5,0c-1.8,0-2.4,0.8-2.5,1.5c-0.1,0.9,0.9,2.1,2.9,2.3
		c0.1,0,0.4,0.2,0.4,0.3c0,0,0,0.1-0.5,0.1c-1.3,0-4,0.1-5-1.5c-0.6-1-0.6-2.2-0.1-3.2c0.7-1.2,2.3-1.9,4.4-1.9h7.8v-3
		c-3.9,0.6-8,0.3-10.6-0.6c-4.9-1.6-8.9-6-7.3-11.4c0.2-0.8,0.8-1.5,1.6-2.4c1.1-1.1,2.1-1.1,2.5-1.1c0.1,0,0.2,0,0.3-0.1
		c0.1-0.2-0.2-0.5-0.2-0.5c-1.7-2-8.7-2.6-10.1-2c0,0-0.1,0-0.1-0.1c-0.6-1-0.8-7.7,1.7-9.4c1-0.7,2.1-1,2.9-0.7
		c0.6,0.2,1.1,0.8,1.4,1.7c0.3,1,0,2.3-0.7,2.7c-0.5,0.3-1.2,0.2-1.8-0.3c-0.2-0.2-0.3-0.4-0.3-0.6l-0.1-0.2
		c-0.1-0.1-0.2-0.3-0.3-0.3c0,0-0.1,0-0.1,0.1c-0.1,2.1,0.7,3.6,2.3,4.2c2.7,1,5.6,0,7.5-2.6c1.7-2.4,2.4-6.5,0.8-7.9
		c-0.1-0.1-0.2-0.1-0.3-0.1c-0.1,0.1-0.1,0.5-0.1,0.5c0,2.3-1.5,3.9-2.9,4.1c-1.2,0.2-2.2-0.5-2.8-2.1c0,0,0-0.3,0.4-0.3
		c1.2,0.1,2.1-0.3,2.6-1.3c0.6-1.2,0.1-2.9-1.1-3.9c0,0-0.3-0.1-0.4,0c0,0-0.1,0.1,0,0.1c0.2,1.5-0.2,2.4-1.1,2.6
		c-0.8,0.2-1.7-0.4-1.9-1.2c-0.2-0.8,0.4-1.6,1.8-2.1c0.1,0,0.1-0.1,0.1-0.1c0-0.1-0.1-0.2-0.1-0.3c-1.8-0.6-3.7,0-4.4,1.5
		c-0.4,0.9,0,2.6,1,3.1c0,0,0,0.1,0,0.2c-0.2,0.3-1.1,0.7-2,0.4c-0.6-0.2-1.4-0.8-1.4-2.5V48.6c0-1.1,1.2-1.6,2.3-1.7
		c1.1-0.1,2.5,0.3,2.6,1.3c0.2,1.3,0,1.6-0.4,1.8c-0.8,0.4-1.5-0.2-1.5-0.2c0,0,0,0,0,0l0,0c0,0,0,0,0,0c-0.1,0.3-0.1,0.5,0,0.8
		c0.3,0.5,1,1,1.9,1.2c0.9,0.2,1.5,0,2-0.3c0.3-0.3,0.5-0.7,0.5-1.3v-1.7c0-0.8,0.4-1.2,0.8-1.2c0.4,0,0.7,0.2,0.8,0.9l0,2.2l0,3.7
		c0,2.7,2.1,3.9,4,3.9c1.9,0,3.9-1.2,3.9-3.6v-5.5c0-1,0.4-1.7,1.1-1.7c0.7-0.1,1.6,0.5,1.8,1.6c0.2,1.2,0.1,1.4-0.2,2l-0.2,0.4
		l-0.1,0.3c-0.3,0.6-0.5,0.9-0.4,1.1c0.1,0.1,0.3,0.1,0.7,0.1c1.3-0.2,2.5-0.5,3.6-0.9v-5.1c0,0,0,0-0.1,0
		C166.6,46.5,166.1,46.6,165.7,46.2 M145.3,79.7c0,1.6-1.4,2.9-3,2.9c-1.7,0-3-1.3-3-2.9c0-1.6,1.4-2.9,3-2.9
		C144,76.8,145.3,78.1,145.3,79.7 M146.9,49.8L146.9,49.8C147,49.8,146.9,49.8,146.9,49.8 M140.3,79.7c0,1,0.9,1.9,1.9,1.9
		c1.1,0,2-0.8,2-1.9c0-1-0.9-1.8-2-1.8C141.2,77.9,140.3,78.7,140.3,79.7 M160.9,37.1c-0.3,0.4-0.6,0.8-0.4,1c0.1,0.1,0.2,0,0.4-0.2
		c1.7-1.5,3.7-1.8,5.9-1.1c0.1,0,0.2,0.1,0.3,0.1v-2.2C163.2,34.6,161.4,36.5,160.9,37.1 M157.5,71.1c-0.8,1.1-1.3,3.7-1.3,7.8
		c0,6.4,4.9,7.3,10.3,7.3c0.2,0,0.4,0,0.6,0v-4.4c-0.2,0-0.4,0-0.6,0c-4.5,0-6.2-0.3-6.2-4c0-4.3,2-6,4.9-7.3l1.9-0.8c0,0,0,0,0,0
		V65c-0.5,0.2-1,0.4-1.5,0.6C162.7,66.9,159.7,68.2,157.5,71.1 M136.3,90.1L136.3,90.1l0.1,0l-0.7-4.8c0-0.3,0-0.4-0.1-0.5
		c-0.1-0.1-0.4-0.1-0.9,0.1c-6.8,2.2-6.9,4.8-6.3,9.6c0,0.3,0.5,0.9,0.6,0.9l0,0l0-0.1c0.1-0.4,0.3-1,0.5-1.2
		C131.5,90.4,134.9,90.1,136.3,90.1 M136.3,90.1L136.3,90.1c-0.1,0-0.2,0-0.2,0H136.3z M163.4,77.4c-0.1,0.3,0.1,0.6,0.3,0.7
		c0.1,0,0.3,0.1,0.5-0.3l0.2-0.5c0.5-1.2,0.9-2.2,2.8-2.4v-2.2C165.3,73.3,163.7,74.8,163.4,77.4"/>
	<path class="st3" d="M250.1,145.4c-0.3-4.1-3.8-6.9-20-3.1c-0.1-1.9-0.1-3.5-0.2-4.3c-0.1-3.1-3.5-4.8-10.2-4.6
		c-3.3,0.1-5.1,0.2-6.3,0.4c-4.5-3.5-5.9-9.1-5.6-14l6.5-7.5c1.7-1.4-4.1-7.3-9.8-5.6l-11.1,14.6c0.2-0.1,0.3-0.3,0.5-0.4
		c-2.7,3.4-2.5,9.9,1.4,16.4c-9.1,1.5-19.6,3-27,3c-0.4,0-0.9,0-1.3,0c-0.4,0-0.9,0-1.3,0c-7.4,0-17.8-1.5-27-3
		c3.9-6.5,4.1-13,1.4-16.4c0.2,0.1,0.3,0.2,0.5,0.4l-11.1-14.6c-5.7-1.7-11.5,4.3-9.8,5.6l6.5,7.5c0.3,5-1.1,10.5-5.6,14
		c-1.2-0.2-3-0.3-6.3-0.4c-6.7-0.2-10.1,1.5-10.2,4.6c0,0.8-0.1,2.5-0.2,4.3c-16.2-3.8-19.7-0.9-20,3.1c-0.3,3.3-0.4,9.8,0,12.2
		c0.4,2.4,4,4.2,7.8,4.8c8.9,1.5,25.8-0.4,38.8-11.9c8.2,1.9,18.1,4.3,35.2,4.3c0.4,0,0.9,0,1.3,0c0.4,0,0.9,0,1.3,0
		c17,0,27-2.4,35.2-4.3c13,11.5,29.9,13.4,38.8,11.9c3.8-0.7,7.4-2.4,7.8-4.8C250.5,155.2,250.4,148.7,250.1,145.4"/>
	<path class="st1" d="M120.6,139.6c-0.3,0.8-1.2,5.7-1.3,6.8c0.3,0,0.7,0.1,0.7,0c1-2.3,1.4-4.6,1.6-7.1
		C121.2,139.2,120.8,139.1,120.6,139.6 M125.2,139.6c0.3,1.1-0.1,6.7,0.8,8.3c0.2,0.3,0.7-0.1,0.7-0.4c0.4-2.7,0.1-5.2-0.5-7.9
		C126.2,139.6,125.6,139.6,125.2,139.6 M126.7,137.9c0.1,0,0.1-0.5,0-0.7c-1.9-1.6-4.1-0.8-6.3-0.8c-0.6,0-0.4,0.7-0.4,1.1
		c0.3,0,0.5,0,0.8,0C122.9,137.3,124.7,138.4,126.7,137.9 M250.8,145.3c-0.1-1.8-0.8-3.1-2.1-4c-2.8-2.1-8.6-2-18,0.1
		c0-1-0.1-2-0.1-3.2l0-0.4c-0.1-2.5-2.1-5.5-10.9-5.2c-3.1,0.1-4.8,0.2-6.1,0.4c-2.3-1.9-3.6-4.2-4.3-6.4c-0.7-2.2-1-4.5-0.9-6.7
		l6.4-7.4c0.3-0.3,0.8-1,0.2-2.4c-1.2-2.3-5.8-5.7-10.6-4.3c-0.1,0-0.3,0.1-0.3,0.2l-11.1,14.6c-0.1,0.2-0.1,0.4-0.1,0.6
		c-0.4,0.6-0.7,1.3-0.9,2.1c-0.3,1.1-0.5,2.3-0.5,3.5c0,3.1,1,6.5,2.8,9.8c-8.9,1.5-18.8,2.8-26,2.8c-0.4,0-0.9,0-1.3,0
		c-0.4,0-0.9,0-1.3,0c-7.1,0-17-1.4-26-2.8c1.8-3.3,2.8-6.7,2.8-9.8c0-1.2-0.2-2.4-0.5-3.5c-0.2-0.8-0.5-1.4-0.9-2.1
		c0-0.2,0-0.4-0.1-0.6l-11.1-14.6c-0.1-0.1-0.2-0.2-0.3-0.2c-4.8-1.4-9.4,2.1-10.6,4.3c-0.7,1.4-0.2,2.1,0.2,2.4l6.4,7.4
		c0.1,2.2-0.1,4.6-0.9,6.7c-0.7,2.1-2,4.5-4.3,6.4c-1.3-0.2-3-0.3-6.1-0.4c-8.8-0.3-10.8,2.7-10.9,5.2l0,0.4
		c-0.1,1.2-0.1,2.2-0.1,3.2c-9.4-2.1-15.2-2.2-18-0.1c-1.3,0.9-1.9,2.2-2.1,4c-0.3,3.3-0.4,9.9,0,12.4c0.5,3,4.8,4.8,8.3,5.4
		c7.6,1.3,25.1,0.4,39.1-11.9c0,0,0.1,0,0.1,0c8.1,1.9,18.1,4.2,34.9,4.2c0.4,0,0.9,0,1.3,0c0.4,0,0.9,0,1.3,0
		c16.8,0,26.8-2.3,34.9-4.2c0,0,0.1,0,0.1,0c14,12.2,31.5,13.2,39.1,11.9c3.6-0.6,7.9-2.4,8.3-5.4
		C251.2,155.2,251.1,148.6,250.8,145.3 M219.8,134c4.3-0.1,9.4,0.4,9.5,4l0,0.4c0.2,4.8,0.3,7.8,0.3,9.5c0,0.7,0,1.1,0,1.5
		c-1.2-0.9-2.7-1.1-4.5-1.3c-5.6-0.8-10.2-0.5-14.8,0.4l-0.1-0.5c0.2-0.4-0.9-5.9-0.8-6.1c0.4-0.6,2.3,0,2.3-1.1
		c0-1-1.6-0.6-2.4-0.6c-0.3,0-0.3-0.1-0.3-0.3c-0.1-0.4-0.5-2.5-0.9-2.9c-0.3-0.3-0.8,0-0.9,0.4c-0.2,0.7,0.9,3.2,0.4,3.2
		c-1,0-2.1,1-2.2,0.7c-0.2-0.5-0.2-1.3-0.6-1.8c-0.5-0.7-2.2-0.2-2.3-0.5c0-0.8,0.5-0.7,0.8-0.9c0.2-0.1,0.4-0.3,0.5-0.5
		c0.1-0.3,0.1-0.8-0.1-1c0.6-0.1,1.2-0.2,1.7-0.3l1.1-0.2c2.3-0.4,3.5-0.7,4.5-1C213,134.5,213.9,134.2,219.8,134 M229.1,152.2
		c-0.7,0.8-2.8,0.6-4.7,0.5c-1.9-0.1-3.6-0.3-4.7,0.4c0-0.3,0-0.6,0-0.9c0-1.7,0.4-2.9,0.8-3.3c1.4,0,2.9,0.2,4.5,0.4
		c2.3,0.3,3.5,0.5,4.4,1.6C229.4,151.5,229.4,151.9,229.1,152.2 M203.7,141.3c0.3,0,0.5,0.1,0.5,0.4c0,0.4-0.5,0.4-0.6,0.5
		c-0.1,0.1-0.5,0-0.5-0.1C202.9,141.6,203.2,141.3,203.7,141.3 M202.7,140.3c-0.1-0.2-0.1-0.5,0-0.6c0.1,0,0.5-0.3,0.7-0.1
		c0.1,0.1,0.3,0.3,0.2,0.5C203.5,140.4,203,140.6,202.7,140.3 M203.6,142.9c0.1-0.3,1.5,0.1,1.6-0.8c0-0.2,0.3,0.2,0.7,0.4
		c0.4,0.2,1.6-0.4,2.3-0.3c0,0,1.1,5.6,0.9,6.4l-2.3,0.4c-0.1-2.8-1.4-5.6-2-5.7C204.2,143.3,203.5,143.6,203.6,142.9 M201.9,137
		c0,0,0-0.1,0-0.2c0.3-0.1,0.6-0.1,0.9-0.2c0,0.1,0,0.3-0.2,0.3C202.4,137.1,202.1,136.9,201.9,137 M204.9,107.2
		c4-1,7.9,1.9,8.9,3.7c0.1,0.2,0.2,0.5,0.2,0.6c0,0.1,0,0.1-0.1,0.2c0,0-0.1,0.1-0.1,0.1c0,0-9.1,10.5-10,11.6
		c-1.8-2.4-3.8-3.9-5.8-4.2c-0.8-0.1-1.5-0.1-2.2,0.1C198.2,116,204.7,107.5,204.9,107.2 M192.8,126.8c0-1.1,0.1-2.1,0.4-3
		c0.3-1,0.7-1.8,1.3-2.5c1.1-0.7,2.2-1,3.3-0.8c1.9,0.3,3.8,1.8,5.5,4.3c0.1,0.2,0.3,0.3,0.5,0.3c0.2,0,0.4-0.1,0.5-0.2l2.9-3.3
		c0,1.9,0.3,3.8,0.9,5.6c0.7,2.1,1.9,4.3,3.9,6.2c-0.4,0.1-0.7,0.2-1.2,0.3c-1,0.3-2.2,0.6-4.4,1l-1.1,0.2c-1.3,0.2-2.7,0.5-4.1,0.7
		c-0.2,0-0.5,0-0.9,0.1v0c-1.5,0.3-3,0.5-4.6,0.8C193.7,133,192.8,129.6,192.8,126.8 M200.7,140.3l0.1-0.1c0.2,0,0.4-0.3,0.6-0.1
		c0.2,0.2,0.2,0.6,0,0.8c-0.2,0.2-0.7,0.1-0.9-0.1C200.5,140.6,200.6,140.4,200.7,140.3 M200,137.7c-0.1,0,0-0.6-0.2-0.6
		c0.3-0.1,0.6-0.1,0.9-0.2c0,0.3,0.1,0.5-0.1,0.7C200.6,137.8,200.2,137.8,200,137.7 M200.8,141.9c0.2-0.1,0.8-0.2,0.9,0.1
		c0.1,0.1,0.2,0.3,0.1,0.4c-0.1,0.1-0.6,0.3-0.8,0.2C200.9,142.6,200.2,142.3,200.8,141.9 M177.4,143.8c0.3,0.1,0.7,0.1,0.9-0.1
		c0.3-0.3-0.2-1.3,0.4-1.3c1.6-0.1,2.2,0.7,2.7,1.3c0.1,0.1-2.2,2.1-2.9,3.2c-0.8-0.6-2.1-0.8-3.1-1.1c0,0-0.2-0.6,0.3-1.2
		c0.6,0.6,1.3,1.4,2.4,1.4c1.1,0,2.5-2.1,2-2.5c-0.8-0.5-1.3,2.1-2.7,1.2c-0.5-0.3-1.3-1.4-0.4-1.5
		C177.2,142.9,177,143.6,177.4,143.8 M152.3,139.8c1.5,0.2,3,0.3,4.5,0.5c-1,1,0.3,3.4-1.2,4.2c-0.3-0.6-0.8-0.5-1.2-0.4
		c-0.6,0.1-0.5,0.9-0.3,1.1c0.6,0.6,2.3,0.4,1.9,1.8c-0.3,0.9-1,1.8-1.9,1.2c-1.8-1.4-1.7-3.7-1.1-5.9c0.1-0.2,0-1.2-0.5-1.7
		C152.2,140.5,152.1,140,152.3,139.8 M151.1,141.2c0.3,0.3,0.6,0.5,0.8,0.9c0.4,0.8-0.4,1.2-0.8,1.7c-0.4-0.5-0.9-1-0.7-1.7
		C150.5,141.7,150.9,141.4,151.1,141.2 M120.3,111.8C120.3,111.7,120.2,111.7,120.3,111.8c-0.1-0.1-0.2-0.2-0.2-0.3
		c0-0.2,0.1-0.4,0.2-0.6c0.9-1.8,4.9-4.8,8.9-3.7c0.3,0.3,6.7,8.9,9.2,12.1c-0.7-0.2-1.5-0.3-2.2-0.1c-2.1,0.3-4.1,1.8-5.8,4.2
		C129.4,122.3,120.3,111.8,120.3,111.8 M126.1,127.1c0.6-1.8,0.9-3.8,0.9-5.6l2.9,3.3c0.1,0.2,0.3,0.2,0.5,0.2
		c0.2,0,0.4-0.1,0.5-0.3c1.7-2.6,3.6-4.1,5.5-4.3c1.1-0.2,2.2,0.1,3.3,0.8c0.6,0.7,1,1.5,1.3,2.5c0.3,0.9,0.4,1.9,0.4,3
		c0,2.8-0.9,6.2-2.9,9.7c-3.4-0.6-6.7-1.1-9.6-1.6l-1.1-0.2c-2.2-0.4-3.4-0.7-4.4-1c-0.4-0.1-0.8-0.2-1.2-0.3
		C124.2,131.5,125.4,129.2,126.1,127.1 M84.6,145.5c0.1-1.4,0.6-2.4,1.5-3c2.4-1.8,8.2-1.7,17.2,0.4c-0.1,3.8-0.1,5.8,0,7
		c0.1,1.3,0.3,2.8,0.8,3.3c1.2,1.2,3.5,1.1,5.8,0.9c1.6-0.1,3.5-0.3,4.1,0.3c0.1,0.1,0.2,0.3,0.2,0.7c0,0.6-0.3,1.1-0.7,1.4
		c-1.8,1.3-7-0.1-11.1-1.2c-1.8-0.5-3.6-1-5-1.2c-4.7-0.8-9.9-1.5-12.4,0.5c-0.2,0.1-0.3,0.3-0.5,0.5
		C84.3,151.9,84.4,147.8,84.6,145.5 M104.8,150.9c0.9-1,2.1-1.3,4.4-1.6c1.6-0.2,3-0.4,4.5-0.4c0.4,0.4,0.8,1.6,0.8,3.3
		c0,0.3,0,0.6,0,0.9c-1.1-0.7-2.8-0.5-4.7-0.4c-1.9,0.1-4,0.3-4.7-0.5C104.8,151.9,104.7,151.5,104.8,150.9 M91.9,161.8
		c-3.9-0.7-6.9-2.4-7.3-4.2c0.1-0.9,0.4-1.6,1.1-2.1c2.1-1.6,6.7-1.1,11.4-0.3c1.4,0.2,3.1,0.7,4.9,1.2c4.8,1.3,9.8,2.7,12.2,1
		c0.1,0,0.1-0.1,0.2-0.1c0,0,0,0,0,0c1.1-0.8,1.5-3.2,1.4-5.1c0-0.7-0.1-2.2-0.6-3.3c4.9,0,9.2,0.9,14,2
		C115.7,162.2,99.1,163,91.9,161.8 M149.3,153.3c-7.5-0.8-13.2-2.2-18.2-3.3c-2.7-0.6-5.1-1.2-7.6-1.6c0-3,0.7-6.2,0.3-9.1
		c0-0.1-0.7,0-1.1,0c0.2,2.9-0.8,6-0.6,8.9c-4.1-0.6-8.2-0.8-13.2-0.1c-1.8,0.3-3.3,0.5-4.5,1.3c0-0.4,0-0.8,0-1.5
		c0-1.7,0.1-4.7,0.3-9.5l0-0.4c0.2-3.5,5.3-4.1,9.5-4c5.8,0.2,6.8,0.5,8.6,0.9c1,0.3,2.2,0.6,4.4,1c0.1,0.1,0.3,0.1,0.4,0.2
		c1.1,0.4,1.9,2.5,1.9,3.9c0.1,2.9-1.4,5.9-0.2,8.7c0,0.1,0.5,0,0.7,0c-0.6-3.7,2.1-7.6,0.1-11.1c-0.1-0.3-0.1-0.9,0.2-1.1
		c5.9,1,13.1,2.3,20,3.2c-0.4,0.4-1.2,1.5-1.4,2c-0.5,1.6,0.8,3.1-0.3,4.7c-0.5,0.7,0.6,1.8,0.4,2.4c-0.3,1.2-2.4,2.1-1.5,3.3
		c0.7,0.9,1.2-1.5,1.7-1.3C150.3,151.1,149.7,152.8,149.3,153.3 M150.8,145.6c0.5-0.2,0.8,0.9,1,1.5c0.1,0.4-0.3,1.2-0.7,1.1
		C150,147.8,149.5,146.1,150.8,145.6 M176.6,153.9C176.6,153.9,176.6,153.9,176.6,153.9c-2.5,0.2-5.3,0.3-8.2,0.3
		c-0.4,0-0.9,0-1.3,0c-0.4,0-0.9,0-1.3,0c-5.6,0-10.5-0.3-14.8-0.7c-0.1-0.4-0.4-1.6,0.1-1.7c0.6-0.1,1.5,0.8,1.8,0.2
		c0.8-1.3-0.8-2.2-1.8-2.9c0.3-0.3,0.6-0.8,0.7-0.7c1.7,1.1,4.7,1.4,5-1c0.3-2.2,1.7-4.7,0.5-7c0-0.1,0-0.1,0-0.1
		c3,0.3,5.9,0.4,8.4,0.4c0.4,0,0.9,0,1.3,0c0.4,0,0.9,0,1.3,0c2.5,0,5.4-0.2,8.4-0.4l0,0.2c0,0.3,0.4,1.1-0.7,1.2
		c-2.5,0.2-3.3,6.4-2,6.4c0.9,0,0.5-1,0.7-1.5c0.1-0.2,2.1,0.5,2.9,1.1c-0.7,1.2-0.9,2.7-1,4.1C176.6,152.5,176.6,153.7,176.6,153.9
		 M177.8,153.9v-0.3c0.2-1.4,0.3-3.6,0.8-4.4c0.6-1,1.4,0.8,1.4,1c0.3,0.8,1,2.9,1,3.4C179.9,153.7,178.9,153.8,177.8,153.9
		 M203,150c-5.5,1.3-12,2.8-20.9,3.6c0.1-0.1,0.1-0.2,0.1-0.3c0,0-0.5-3.9-2.7-5.8c0.7-0.8,2-2.5,2.6-2.5c0.3,0,0.1,1.6,0.3,1.8
		c0.2,0.1,1.1,0.2,1.1-0.1c0.2-1.6-0.8-5.9-5-5.5l0.1-0.8l0-0.2c6.6-0.7,13.9-1.8,20.3-2.9c-0.2,0.1-0.3,0.2-0.3,0.4
		c0,0.9,0.9,1.2,1.6,1.1c0.2,0,0.2,0.4,0,0.6c-0.3,0.3-1.2,0.5-1.1,1.6c0.2,3.7,2.8,1.9,2.9,2.3c0.3,0.7-1.6,0.3-1.6,1
		c0,1,2.2-0.1,2.2,0.1c0.3,1.1-2.5,0.4-2.5,1.4c0,1.1,2.9-0.1,2.9,0.2c0.3,1-1.6,0.3-1.6,1.4c0,0.4,0.7,0.4,1.1,0.3
		c0.8-0.2,1.6-0.5,2.2-1c0.3,0.3,0.4,0.6,0.5,1c0.2,0.5,0.1,1,0.2,1.6c0,0.1,0,0.1,0,0.2C204.6,149.6,203.8,149.8,203,150
		 M242.3,161.8c-7.2,1.2-23.8,0.4-37.3-10.9c4.8-1.1,9.1-2,14-2c-0.5,1.1-0.6,2.5-0.6,3.3c-0.1,1.9,0.3,4.3,1.4,5.1c0,0,0,0,0,0
		c0.1,0,0.1,0.1,0.2,0.1c2.3,1.6,7.3,0.3,12.2-1c1.8-0.5,3.5-1,4.9-1.2c4.7-0.8,9.4-1.3,11.4,0.3c0.6,0.5,1,1.2,1.1,2.1
		C249.2,159.4,246.2,161.1,242.3,161.8 M249.7,154.9c-0.1-0.2-0.3-0.3-0.5-0.5c-2.6-2-7.8-1.3-12.4-0.5c-1.4,0.3-3.2,0.7-5,1.2
		c-4.1,1.1-9.2,2.5-11.1,1.2c-0.4-0.3-0.6-0.7-0.7-1.4c0-0.4,0.1-0.6,0.2-0.7c0.6-0.6,2.4-0.4,4.1-0.3c2.3,0.2,4.6,0.3,5.8-0.9
		c0.5-0.5,0.7-2,0.8-3.3c0.1-1.1,0.1-3.2,0-7c8.9-2,14.7-2.2,17.2-0.4c0.9,0.7,1.4,1.6,1.5,3C249.7,147.8,249.8,151.9,249.7,154.9"
		/>
</g>
</svg>
