<?xml version="1.0" encoding="utf-8"?>
<!-- Generator: Adobe Illustrator 27.2.0, SVG Export Plug-In . SVG Version: 6.00 Build 0)  -->
<svg version="1.1" id="Layer_1" xmlns="http://www.w3.org/2000/svg" xmlns:xlink="http://www.w3.org/1999/xlink" x="0px" y="0px"
	 viewBox="0 0 223.7 72.9" style="enable-background:new 0 0 223.7 72.9;" xml:space="preserve">
<style type="text/css">
	.st0{fill:#2774AE;}
</style>
<path class="st0" d="M0.2,51.5C-0.1,49.2,0,45.8,0,44L3.6,3.6h13.2l-3.6,40.8c-0.8,8.8,2.7,15.1,11.5,15.1c9,0,13.7-6.3,14.5-14.2
	L43,3.6h13.2l-3.7,41.1c-1.5,15.9-12,27.7-29,27.7C10.4,72.5,1.8,63.9,0.2,51.5 M61.6,37.8C63.3,18.5,76.4,2.4,99,2.4
	c6,0,11.7,1.4,17.4,5.1l-1.5,16c-5.2-6.9-11.4-8-17.1-8c-14.1,0-21.8,9.8-22.9,22.1c-1,12.1,5.2,21.9,18.8,21.9
	c5.9,0,12.2-1.7,18.8-8.3l-1.5,16.5c-6.4,3.5-12.4,5.1-18.4,5.1C70.2,72.6,60,56,61.6,37.8 M127,3.6h13.2l-4.8,54.9h18.9
	c1.4,0,5.9-0.1,7.1-0.1c-0.1,0.6-1.2,12.6-1.2,12.6H121L127,3.6 M199.1,0.6h-1L162,71.1h14.1l5-10.7h25.5l3.2,10.7h13.9L199.1,0.6
	 M195.8,28.8c0.4-0.9,0.8-2.1,1-2.8h0.2c0.1,0.9,0.2,1.9,0.5,2.9c0.7,3.1,5.9,20.1,5.9,20.1h-16.7C186.6,49,195.6,29.3,195.8,28.8
	L195.8,28.8z"/>
</svg>
