{
	"asset":{
		"generator":"Khronos glTF Blender I/O v3.6.27",
		"version":"2.0"
	},
	"scene":0,
	"scenes":[
		{
			"name":"Scene",
			"nodes":[
				0
			]
		}
	],
	"nodes":[
		{
			"mesh":0,
			"name":"Cylinder.002",
			"scale":[
				0.20683488249778748,
				0.13313618302345276,
				0.20683488249778748
			],
			"translation":[
				0,
				0.8565956354141235,
				0
			]
		}
	],
	"materials":[
		{
			"doubleSided":true,
			"name":"blue",
			"pbrMetallicRoughness":{
				"baseColorFactor":[
					0.026689404621720314,
					0.35883980989456177,
					0.05400083586573601,
					1
				],
				"metallicFactor":0,
				"roughnessFactor":0.35039371252059937
			}
		}
	],
	"meshes":[
		{
			"name":"Cylinder.004",
			"primitives":[
				{
					"attributes":{
						"POSITION":0,
						"NORMAL":1,
						"TEXCOORD_0":2
					},
					"indices":3,
					"material":0
				}
			]
		}
	],
	"accessors":[
		{
			"bufferView":0,
			"componentType":5126,
			"count":3281,
			"max":[
				1.004542350769043,
				1.2966816425323486,
				1.004542350769043
			],
			"min":[
				-1.004542350769043,
				-0.699999988079071,
				-1.0045424699783325
			],
			"type":"VEC3"
		},
		{
			"bufferView":1,
			"componentType":5126,
			"count":3281,
			"type":"VEC3"
		},
		{
			"bufferView":2,
			"componentType":5126,
			"count":3281,
			"type":"VEC2"
		},
		{
			"bufferView":3,
			"componentType":5123,
			"count":12675,
			"type":"SCALAR"
		}
	],
	"bufferViews":[
		{
			"buffer":0,
			"byteLength":39372,
			"byteOffset":0,
			"target":34962
		},
		{
			"buffer":0,
			"byteLength":39372,
			"byteOffset":39372,
			"target":34962
		},
		{
			"buffer":0,
			"byteLength":26248,
			"byteOffset":78744,
			"target":34962
		},
		{
			"buffer":0,
			"byteLength":25350,
			"byteOffset":104992,
			"target":34963
		}
	],
	"buffers":[
		{
			"byteLength":130344,
			"uri":"data:application/octet-stream;base64,"
		}
	]
}
