{
	"asset":{
		"generator":"Khronos glTF Blender I/O v3.6.27",
		"version":"2.0"
	},
	"extensionsUsed":[
		"KHR_materials_transmission",
		"KHR_materials_ior"
	],
	"scene":0,
	"scenes":[
		{
			"name":"Scene",
			"nodes":[
				0
			]
		}
	],
	"nodes":[
		{
			"mesh":0,
			"name":"beaker",
			"translation":[
				-0.024246279150247574,
				0.0334596149623394,
				0.05938839912414551
			]
		}
	],
	"materials":[
		{
			"doubleSided":true,
			"extensions":{
				"KHR_materials_transmission":{
					"transmissionFactor":1
				},
				"KHR_materials_ior":{
					"ior":1.4500000476837158
				}
			},
			"name":"Glass",
			"pbrMetallicRoughness":{
				"baseColorFactor":[
					0.800000011920929,
					0.800000011920929,
					0.800000011920929,
					1
				],
				"metallicFactor":0,
				"roughnessFactor":0
			}
		}
	],
	"meshes":[
		{
			"name":"Circle",
			"primitives":[
				{
					"attributes":{
						"POSITION":0,
						"NORMAL":1,
						"TEXCOORD_0":2
					},
					"indices":3,
					"material":0
				}
			]
		}
	],
	"accessors":[
		{
			"bufferView":0,
			"componentType":5126,
			"count":7912,
			"max":[
				0.03867093101143837,
				0.07075723260641098,
				0.038052670657634735
			],
			"min":[
				-0.046678658574819565,
				-0.03321697935461998,
				-0.038052670657634735
			],
			"type":"VEC3"
		},
		{
			"bufferView":1,
			"componentType":5126,
			"count":7912,
			"type":"VEC3"
		},
		{
			"bufferView":2,
			"componentType":5126,
			"count":7912,
			"type":"VEC2"
		},
		{
			"bufferView":3,
			"componentType":5123,
			"count":45768,
			"type":"SCALAR"
		}
	],
	"bufferViews":[
		{
			"buffer":0,
			"byteLength":94944,
			"byteOffset":0,
			"target":34962
		},
		{
			"buffer":0,
			"byteLength":94944,
			"byteOffset":94944,
			"target":34962
		},
		{
			"buffer":0,
			"byteLength":63296,
			"byteOffset":189888,
			"target":34962
		},
		{
			"buffer":0,
			"byteLength":91536,
			"byteOffset":253184,
			"target":34963
		}
	],
	"buffers":[
		{
			"byteLength":344720,
			"uri":"Beaker.bin"
		}
	]
}
