{
	"asset":{
		"generator":"Khronos glTF Blender I/O v3.6.27",
		"version":"2.0"
	},
	"scene":0,
	"scenes":[
		{
			"name":"Scene",
			"nodes":[
				0,
				1
			]
		}
	],
	"nodes":[
		{
			"mesh":0,
			"name":"backup",
			"scale":[
				0.24306349456310272,
				0.24306349456310272,
				0.24306349456310272
			],
			"translation":[
				0,
				0.24200323224067688,
				0
			]
		},
		{
			"mesh":1,
			"name":"anhydrous magnesium sulfate",
			"translation":[
				0.00019258586689829826,
				0.3749982714653015,
				0.25467944145202637
			]
		}
	],
	"materials":[
		{
			"doubleSided":true,
			"name":"Material",
			"pbrMetallicRoughness":{
				"baseColorFactor":[
					0.800000011920929,
					0.800000011920929,
					0.800000011920929,
					1
				],
				"metallicFactor":0,
				"roughnessFactor":0.5
			}
		},
		{
			"alphaMode":"BLEND",
			"doubleSided":true,
			"name":"anhydrous magnesium sulfate",
			"pbrMetallicRoughness":{
				"baseColorTexture":{
					"index":0
				},
				"metallicFactor":0,
				"roughnessFactor":0.5
			}
		}
	],
	"meshes":[
		{
			"name":"Cylinder.001",
			"primitives":[
				{
					"attributes":{
						"POSITION":0,
						"NORMAL":1,
						"TEXCOORD_0":2
					},
					"indices":3,
					"material":0
				}
			]
		},
		{
			"name":"anhydrous magnesium sulfate",
			"primitives":[
				{
					"attributes":{
						"POSITION":4,
						"NORMAL":5,
						"TEXCOORD_0":6
					},
					"indices":7,
					"material":1
				}
			]
		}
	],
	"textures":[
		{
			"sampler":0,
			"source":0
		}
	],
	"images":[
		{
			"bufferView":8,
			"mimeType":"image/png",
			"name":"anhydrous magnesium sulfate"
		}
	],
	"accessors":[
		{
			"bufferView":0,
			"componentType":5126,
			"count":3928,
			"max":[
				1.013944387435913,
				2.8748486042022705,
				1.0139445066452026
			],
			"min":[
				-1.0139445066452026,
				-0.9979445934295654,
				-1.0139445066452026
			],
			"type":"VEC3"
		},
		{
			"bufferView":1,
			"componentType":5126,
			"count":3928,
			"type":"VEC3"
		},
		{
			"bufferView":2,
			"componentType":5126,
			"count":3928,
			"type":"VEC2"
		},
		{
			"bufferView":3,
			"componentType":5123,
			"count":15048,
			"type":"SCALAR"
		},
		{
			"bufferView":4,
			"componentType":5126,
			"count":935,
			"max":[
				0.24825157225131989,
				0.24962745606899261,
				-0.005868688225746155
			],
			"min":[
				-0.24863624572753906,
				-0.24925071001052856,
				-0.5014137029647827
			],
			"type":"VEC3"
		},
		{
			"bufferView":5,
			"componentType":5126,
			"count":935,
			"type":"VEC3"
		},
		{
			"bufferView":6,
			"componentType":5126,
			"count":935,
			"type":"VEC2"
		},
		{
			"bufferView":7,
			"componentType":5123,
			"count":5184,
			"type":"SCALAR"
		}
	],
	"bufferViews":[
		{
			"buffer":0,
			"byteLength":47136,
			"byteOffset":0,
			"target":34962
		},
		{
			"buffer":0,
			"byteLength":47136,
			"byteOffset":47136,
			"target":34962
		},
		{
			"buffer":0,
			"byteLength":31424,
			"byteOffset":94272,
			"target":34962
		},
		{
			"buffer":0,
			"byteLength":30096,
			"byteOffset":125696,
			"target":34963
		},
		{
			"buffer":0,
			"byteLength":11220,
			"byteOffset":155792,
			"target":34962
		},
		{
			"buffer":0,
			"byteLength":11220,
			"byteOffset":167012,
			"target":34962
		},
		{
			"buffer":0,
			"byteLength":7480,
			"byteOffset":178232,
			"target":34962
		},
		{
			"buffer":0,
			"byteLength":10368,
			"byteOffset":185712,
			"target":34963
		},
		{
			"buffer":0,
			"byteLength":48786,
			"byteOffset":196080
		}
	],
	"samplers":[
		{
			"magFilter":9729,
			"minFilter":9987,
			"wrapS":33071,
			"wrapT":33071
		}
	],
	"buffers":[
		{
			"byteLength":244868,
			"uri":"data:application/octet-stream;base64,"
		}
	]
}
