{
	"asset":{
		"generator":"Khronos glTF Blender I/O v3.6.27",
		"version":"2.0"
	},
	"extensionsUsed":[
		"KHR_materials_transmission",
		"KHR_materials_ior"
	],
	"scene":0,
	"scenes":[
		{
			"name":"Scene",
			"nodes":[
				1
			]
		}
	],
	"nodes":[
		{
			"mesh":0,
			"name":"Roundcube.001",
			"translation":[
				0,
				0.021400615572929382,
				0
			]
		},
		{
			"children":[
				0
			],
			"mesh":1,
			"name":"body",
			"translation":[
				0,
				0.17129887640476227,
				0
			]
		}
	],
	"materials":[
		{
			"alphaMode":"BLEND",
			"doubleSided":true,
			"extensions":{
				"KHR_materials_transmission":{
					"transmissionFactor":1
				},
				"KHR_materials_ior":{
					"ior":1.4500000476837158
				}
			},
			"name":"Glass",
			"pbrMetallicRoughness":{
				"baseColorFactor":[
					0.800000011920929,
					0.800000011920929,
					0.800000011920929,
					1
				],
				"metallicFactor":0,
				"roughnessFactor":0
			}
		},
		{
			"alphaMode":"BLEND",
			"doubleSided":true,
			"extensions":{
				"KHR_materials_transmission":{
					"transmissionFactor":1
				},
				"KHR_materials_ior":{
					"ior":1.4500000476837158
				}
			},
			"name":"Glass",
			"pbrMetallicRoughness":{
				"baseColorFactor":[
					0.800000011920929,
					0.800000011920929,
					0.800000011920929,
					1
				],
				"metallicFactor":0,
				"roughnessFactor":0
			}
		},
		{
			"doubleSided":true,
			"extensions":{
				"KHR_materials_transmission":{
					"transmissionFactor":1
				},
				"KHR_materials_ior":{
					"ior":1.4500000476837158
				}
			},
			"name":"Frosted glass",
			"pbrMetallicRoughness":{
				"baseColorFactor":[
					0.800000011920929,
					0.800000011920929,
					0.800000011920929,
					1
				],
				"metallicFactor":0,
				"roughnessFactor":0.48181816935539246
			}
		}
	],
	"meshes":[
		{
			"name":"Roundcube.001",
			"primitives":[
				{
					"attributes":{
						"POSITION":0,
						"NORMAL":1,
						"TEXCOORD_0":2
					},
					"indices":3,
					"material":0
				}
			]
		},
		{
			"name":"Sphere",
			"primitives":[
				{
					"attributes":{
						"POSITION":4,
						"NORMAL":5,
						"TEXCOORD_0":6
					},
					"indices":7,
					"material":1
				},
				{
					"attributes":{
						"POSITION":8,
						"NORMAL":9,
						"TEXCOORD_0":10
					},
					"indices":11,
					"material":2
				}
			]
		}
	],
	"accessors":[
		{
			"bufferView":0,
			"componentType":5126,
			"count":510,
			"max":[
				0.018381614238023758,
				0.018458474427461624,
				0.018687576055526733
			],
			"min":[
				-0.018381614238023758,
				-0.09513439238071442,
				-0.018687574192881584
			],
			"type":"VEC3"
		},
		{
			"bufferView":1,
			"componentType":5126,
			"count":510,
			"type":"VEC3"
		},
		{
			"bufferView":2,
			"componentType":5126,
			"count":510,
			"type":"VEC2"
		},
		{
			"bufferView":3,
			"componentType":5123,
			"count":3072,
			"type":"SCALAR"
		},
		{
			"bufferView":4,
			"componentType":5126,
			"count":1650,
			"max":[
				0.08158592134714127,
				0.11810585111379623,
				0.08158590644598007
			],
			"min":[
				-0.08158589899539948,
				-0.19282309710979462,
				-0.08158590644598007
			],
			"type":"VEC3"
		},
		{
			"bufferView":5,
			"componentType":5126,
			"count":1650,
			"type":"VEC3"
		},
		{
			"bufferView":6,
			"componentType":5126,
			"count":1650,
			"type":"VEC2"
		},
		{
			"bufferView":7,
			"componentType":5123,
			"count":9216,
			"type":"SCALAR"
		},
		{
			"bufferView":8,
			"componentType":5126,
			"count":663,
			"max":[
				0.03618362173438072,
				0.20065860450267792,
				0.03618361055850983
			],
			"min":[
				-0.03618361055850983,
				-0.19785566627979279,
				-0.036183614283800125
			],
			"type":"VEC3"
		},
		{
			"bufferView":9,
			"componentType":5126,
			"count":663,
			"type":"VEC3"
		},
		{
			"bufferView":10,
			"componentType":5126,
			"count":663,
			"type":"VEC2"
		},
		{
			"bufferView":11,
			"componentType":5123,
			"count":3264,
			"type":"SCALAR"
		}
	],
	"bufferViews":[
		{
			"buffer":0,
			"byteLength":6120,
			"byteOffset":0,
			"target":34962
		},
		{
			"buffer":0,
			"byteLength":6120,
			"byteOffset":6120,
			"target":34962
		},
		{
			"buffer":0,
			"byteLength":4080,
			"byteOffset":12240,
			"target":34962
		},
		{
			"buffer":0,
			"byteLength":6144,
			"byteOffset":16320,
			"target":34963
		},
		{
			"buffer":0,
			"byteLength":19800,
			"byteOffset":22464,
			"target":34962
		},
		{
			"buffer":0,
			"byteLength":19800,
			"byteOffset":42264,
			"target":34962
		},
		{
			"buffer":0,
			"byteLength":13200,
			"byteOffset":62064,
			"target":34962
		},
		{
			"buffer":0,
			"byteLength":18432,
			"byteOffset":75264,
			"target":34963
		},
		{
			"buffer":0,
			"byteLength":7956,
			"byteOffset":93696,
			"target":34962
		},
		{
			"buffer":0,
			"byteLength":7956,
			"byteOffset":101652,
			"target":34962
		},
		{
			"buffer":0,
			"byteLength":5304,
			"byteOffset":109608,
			"target":34962
		},
		{
			"buffer":0,
			"byteLength":6528,
			"byteOffset":114912,
			"target":34963
		}
	],
	"buffers":[
		{
			"byteLength":121440,
			"uri":"data:application/octet-stream;base64,"
		}
	]
}
