{
	"asset":{
		"generator":"Khronos glTF Blender I/O v3.6.27",
		"version":"2.0"
	},
	"scene":0,
	"scenes":[
		{
			"name":"Scene",
			"nodes":[
				4
			]
		}
	],
	"nodes":[
		{
			"mesh":0,
			"name":"belt",
			"translation":[
				0,
				0.11797356605529785,
				-0.8345920443534851
			]
		},
		{
			"mesh":1,
			"name":"belt.001",
			"rotation":[
				0,
				-0.5822181701660156,
				0,
				0.8130326271057129
			],
			"translation":[
				0.8386048674583435,
				0.11797356605529785,
				-0.22386892139911652
			]
		},
		{
			"mesh":2,
			"name":"belt.002",
			"rotation":[
				0,
				0.5851686596870422,
				0,
				0.8109115958213806
			],
			"translation":[
				-0.8240203857421875,
				0.11797356605529785,
				-0.24574561417102814
			]
		},
		{
			"mesh":3,
			"name":"small ring",
			"translation":[
				0,
				0.4365231394767761,
				0.05802534520626068
			]
		},
		{
			"children":[
				0,
				1,
				2,
				3
			],
			"mesh":4,
			"name":"big ring",
			"translation":[
				0,
				0.4634721279144287,
				-0.05802534520626068
			]
		}
	],
	"materials":[
		{
			"doubleSided":true,
			"name":"Material.001",
			"pbrMetallicRoughness":{
				"baseColorFactor":[
					0.01694953814148903,
					0.22593297064304352,
					0.03185625374317169,
					1
				],
				"metallicFactor":0
			}
		},
		{
			"doubleSided":true,
			"name":"Material.001",
			"pbrMetallicRoughness":{
				"baseColorFactor":[
					0.01694953814148903,
					0.22593297064304352,
					0.03185625374317169,
					1
				],
				"metallicFactor":0
			}
		}
	],
	"meshes":[
		{
			"name":"Cylinder.001",
			"primitives":[
				{
					"attributes":{
						"POSITION":0,
						"NORMAL":1,
						"TEXCOORD_0":2
					},
					"indices":3,
					"material":0
				}
			]
		},
		{
			"name":"Cylinder.001",
			"primitives":[
				{
					"attributes":{
						"POSITION":4,
						"NORMAL":5,
						"TEXCOORD_0":6
					},
					"indices":3,
					"material":0
				}
			]
		},
		{
			"name":"Cylinder.001",
			"primitives":[
				{
					"attributes":{
						"POSITION":7,
						"NORMAL":8,
						"TEXCOORD_0":9
					},
					"indices":3,
					"material":0
				}
			]
		},
		{
			"name":"Circle.001",
			"primitives":[
				{
					"attributes":{
						"POSITION":10,
						"NORMAL":11,
						"TEXCOORD_0":12
					},
					"indices":13,
					"material":1
				}
			]
		},
		{
			"name":"Circle.004",
			"primitives":[
				{
					"attributes":{
						"POSITION":14,
						"NORMAL":15,
						"TEXCOORD_0":16
					},
					"indices":17,
					"material":1
				}
			]
		}
	],
	"accessors":[
		{
			"bufferView":0,
			"componentType":5126,
			"count":653,
			"max":[
				0.1570337414741516,
				0.23020371794700623,
				0.36026865243911743
			],
			"min":[
				-0.15700989961624146,
				-0.23020370304584503,
				-0.34122732281684875
			],
			"type":"VEC3"
		},
		{
			"bufferView":1,
			"componentType":5126,
			"count":653,
			"type":"VEC3"
		},
		{
			"bufferView":2,
			"componentType":5126,
			"count":653,
			"type":"VEC2"
		},
		{
			"bufferView":3,
			"componentType":5123,
			"count":3024,
			"type":"SCALAR"
		},
		{
			"bufferView":4,
			"componentType":5126,
			"count":653,
			"max":[
				0.1570337414741516,
				0.23020371794700623,
				0.36026865243911743
			],
			"min":[
				-0.15700989961624146,
				-0.23020370304584503,
				-0.34122732281684875
			],
			"type":"VEC3"
		},
		{
			"bufferView":5,
			"componentType":5126,
			"count":653,
			"type":"VEC3"
		},
		{
			"bufferView":6,
			"componentType":5126,
			"count":653,
			"type":"VEC2"
		},
		{
			"bufferView":7,
			"componentType":5126,
			"count":653,
			"max":[
				0.1570337414741516,
				0.23020371794700623,
				0.36026865243911743
			],
			"min":[
				-0.15700989961624146,
				-0.23020370304584503,
				-0.34122732281684875
			],
			"type":"VEC3"
		},
		{
			"bufferView":8,
			"componentType":5126,
			"count":653,
			"type":"VEC3"
		},
		{
			"bufferView":9,
			"componentType":5126,
			"count":653,
			"type":"VEC2"
		},
		{
			"bufferView":10,
			"componentType":5126,
			"count":6178,
			"max":[
				0.6345689296722412,
				-0.013380483724176884,
				0.36985206604003906
			],
			"min":[
				-0.6345689296722412,
				-0.19682544469833374,
				-0.639404296875
			],
			"type":"VEC3"
		},
		{
			"bufferView":11,
			"componentType":5126,
			"count":6178,
			"type":"VEC3"
		},
		{
			"bufferView":12,
			"componentType":5126,
			"count":6178,
			"type":"VEC2"
		},
		{
			"bufferView":13,
			"componentType":5123,
			"count":37056,
			"type":"SCALAR"
		},
		{
			"bufferView":14,
			"componentType":5126,
			"count":6178,
			"max":[
				0.764285683631897,
				-0.005065164994448423,
				0.4518166184425354
			],
			"min":[
				-0.764285683631897,
				-0.1910386085510254,
				-0.7642857432365417
			],
			"type":"VEC3"
		},
		{
			"bufferView":15,
			"componentType":5126,
			"count":6178,
			"type":"VEC3"
		},
		{
			"bufferView":16,
			"componentType":5126,
			"count":6178,
			"type":"VEC2"
		},
		{
			"bufferView":17,
			"componentType":5123,
			"count":37056,
			"type":"SCALAR"
		}
	],
	"bufferViews":[
		{
			"buffer":0,
			"byteLength":7836,
			"byteOffset":0,
			"target":34962
		},
		{
			"buffer":0,
			"byteLength":7836,
			"byteOffset":7836,
			"target":34962
		},
		{
			"buffer":0,
			"byteLength":5224,
			"byteOffset":15672,
			"target":34962
		},
		{
			"buffer":0,
			"byteLength":6048,
			"byteOffset":20896,
			"target":34963
		},
		{
			"buffer":0,
			"byteLength":7836,
			"byteOffset":26944,
			"target":34962
		},
		{
			"buffer":0,
			"byteLength":7836,
			"byteOffset":34780,
			"target":34962
		},
		{
			"buffer":0,
			"byteLength":5224,
			"byteOffset":42616,
			"target":34962
		},
		{
			"buffer":0,
			"byteLength":7836,
			"byteOffset":47840,
			"target":34962
		},
		{
			"buffer":0,
			"byteLength":7836,
			"byteOffset":55676,
			"target":34962
		},
		{
			"buffer":0,
			"byteLength":5224,
			"byteOffset":63512,
			"target":34962
		},
		{
			"buffer":0,
			"byteLength":74136,
			"byteOffset":68736,
			"target":34962
		},
		{
			"buffer":0,
			"byteLength":74136,
			"byteOffset":142872,
			"target":34962
		},
		{
			"buffer":0,
			"byteLength":49424,
			"byteOffset":217008,
			"target":34962
		},
		{
			"buffer":0,
			"byteLength":74112,
			"byteOffset":266432,
			"target":34963
		},
		{
			"buffer":0,
			"byteLength":74136,
			"byteOffset":340544,
			"target":34962
		},
		{
			"buffer":0,
			"byteLength":74136,
			"byteOffset":414680,
			"target":34962
		},
		{
			"buffer":0,
			"byteLength":49424,
			"byteOffset":488816,
			"target":34962
		},
		{
			"buffer":0,
			"byteLength":74112,
			"byteOffset":538240,
			"target":34963
		}
	],
	"buffers":[
		{
			"byteLength":612352,
			"uri":"data:application/octet-stream;base64,"
		}
	]
}
