{
	"asset":{
		"generator":"Khronos glTF Blender I/O v3.6.27",
		"version":"2.0"
	},
	"extensionsUsed":[
		"KHR_materials_transmission",
		"KHR_materials_ior"
	],
	"scene":0,
	"scenes":[
		{
			"name":"Scene",
			"nodes":[
				0,
				1
			]
		}
	],
	"nodes":[
		{
			"mesh":0,
			"name":"rb 50ml body",
			"translation":[
				0,
				0.45772847533226013,
				0
			]
		},
		{
			"mesh":1,
			"name":"rb 50mL label",
			"translation":[
				0.05925161391496658,
				0.4773856997489929,
				0.4858829379081726
			]
		}
	],
	"materials":[
		{
			"alphaMode":"BLEND",
			"doubleSided":true,
			"extensions":{
				"KHR_materials_transmission":{
					"transmissionFactor":1
				},
				"KHR_materials_ior":{
					"ior":1.4500000476837158
				}
			},
			"name":"Glass",
			"pbrMetallicRoughness":{
				"baseColorFactor":[
					0.800000011920929,
					0.800000011920929,
					0.800000011920929,
					1
				],
				"metallicFactor":0,
				"roughnessFactor":0
			}
		},
		{
			"doubleSided":true,
			"extensions":{
				"KHR_materials_transmission":{
					"transmissionFactor":1
				},
				"KHR_materials_ior":{
					"ior":1.4500000476837158
				}
			},
			"name":"Frosted glass",
			"pbrMetallicRoughness":{
				"baseColorFactor":[
					0.800000011920929,
					0.800000011920929,
					0.800000011920929,
					1
				],
				"metallicFactor":0,
				"roughnessFactor":0.48181816935539246
			}
		},
		{
			"alphaMode":"BLEND",
			"doubleSided":true,
			"name":"rb 50mL",
			"pbrMetallicRoughness":{
				"baseColorTexture":{
					"index":0
				},
				"metallicFactor":0,
				"roughnessFactor":0.5
			}
		}
	],
	"meshes":[
		{
			"name":"Sphere",
			"primitives":[
				{
					"attributes":{
						"POSITION":0,
						"NORMAL":1,
						"TEXCOORD_0":2
					},
					"indices":3,
					"material":0
				},
				{
					"attributes":{
						"POSITION":4,
						"NORMAL":5,
						"TEXCOORD_0":6
					},
					"indices":7,
					"material":1
				}
			]
		},
		{
			"name":"rb 50mL",
			"primitives":[
				{
					"attributes":{
						"POSITION":8,
						"NORMAL":9,
						"TEXCOORD_0":10
					},
					"indices":11,
					"material":2
				}
			]
		}
	],
	"textures":[
		{
			"sampler":0,
			"source":0
		}
	],
	"images":[
		{
			"bufferView":12,
			"mimeType":"image/png",
			"name":"rb 50mL"
		}
	],
	"accessors":[
		{
			"bufferView":0,
			"componentType":5126,
			"count":2165,
			"max":[
				0.463852196931839,
				0.7738395929336548,
				0.463852196931839
			],
			"min":[
				-0.4638521373271942,
				-0.4447767436504364,
				-0.463852196931839
			],
			"type":"VEC3"
		},
		{
			"bufferView":1,
			"componentType":5126,
			"count":2165,
			"type":"VEC3"
		},
		{
			"bufferView":2,
			"componentType":5126,
			"count":2165,
			"type":"VEC2"
		},
		{
			"bufferView":3,
			"componentType":5123,
			"count":10272,
			"type":"SCALAR"
		},
		{
			"bufferView":4,
			"componentType":5126,
			"count":793,
			"max":[
				0.20219601690769196,
				1.1763617992401123,
				0.20219600200653076
			],
			"min":[
				-0.20219601690769196,
				0.7116290330886841,
				-0.20219606161117554
			],
			"type":"VEC3"
		},
		{
			"bufferView":5,
			"componentType":5126,
			"count":793,
			"type":"VEC3"
		},
		{
			"bufferView":6,
			"componentType":5126,
			"count":793,
			"type":"VEC2"
		},
		{
			"bufferView":7,
			"componentType":5123,
			"count":3840,
			"type":"SCALAR"
		},
		{
			"bufferView":8,
			"componentType":5126,
			"count":189,
			"max":[
				0.25558239221572876,
				0.142861470580101,
				-0.020874477922916412
			],
			"min":[
				-0.39304161071777344,
				-0.142861470580101,
				-0.21397264301776886
			],
			"type":"VEC3"
		},
		{
			"bufferView":9,
			"componentType":5126,
			"count":189,
			"type":"VEC3"
		},
		{
			"bufferView":10,
			"componentType":5126,
			"count":189,
			"type":"VEC2"
		},
		{
			"bufferView":11,
			"componentType":5123,
			"count":960,
			"type":"SCALAR"
		}
	],
	"bufferViews":[
		{
			"buffer":0,
			"byteLength":25980,
			"byteOffset":0,
			"target":34962
		},
		{
			"buffer":0,
			"byteLength":25980,
			"byteOffset":25980,
			"target":34962
		},
		{
			"buffer":0,
			"byteLength":17320,
			"byteOffset":51960,
			"target":34962
		},
		{
			"buffer":0,
			"byteLength":20544,
			"byteOffset":69280,
			"target":34963
		},
		{
			"buffer":0,
			"byteLength":9516,
			"byteOffset":89824,
			"target":34962
		},
		{
			"buffer":0,
			"byteLength":9516,
			"byteOffset":99340,
			"target":34962
		},
		{
			"buffer":0,
			"byteLength":6344,
			"byteOffset":108856,
			"target":34962
		},
		{
			"buffer":0,
			"byteLength":7680,
			"byteOffset":115200,
			"target":34963
		},
		{
			"buffer":0,
			"byteLength":2268,
			"byteOffset":122880,
			"target":34962
		},
		{
			"buffer":0,
			"byteLength":2268,
			"byteOffset":125148,
			"target":34962
		},
		{
			"buffer":0,
			"byteLength":1512,
			"byteOffset":127416,
			"target":34962
		},
		{
			"buffer":0,
			"byteLength":1920,
			"byteOffset":128928,
			"target":34963
		},
		{
			"buffer":0,
			"byteLength":13654,
			"byteOffset":130848
		}
	],
	"samplers":[
		{
			"magFilter":9729,
			"minFilter":9987,
			"wrapS":33071,
			"wrapT":33071
		}
	],
	"buffers":[
		{
			"byteLength":144504,
			"uri":"data:application/octet-stream;base64,"
		}
	]
}
