{
	"asset":{
		"generator":"Khronos glTF Blender I/O v3.6.27",
		"version":"2.0"
	},
	"extensionsUsed":[
		"KHR_materials_transmission",
		"KHR_materials_ior"
	],
	"scene":0,
	"scenes":[
		{
			"name":"Scene",
			"nodes":[
				0,
				1
			]
		}
	],
	"nodes":[
		{
			"mesh":0,
			"name":"rb 25ml body",
			"translation":[
				0,
				0.35885557532310486,
				0
			]
		},
		{
			"mesh":1,
			"name":"rb 25mL",
			"translation":[
				0.044122084975242615,
				0.3716822564601898,
				0.5940380692481995
			]
		}
	],
	"materials":[
		{
			"alphaMode":"BLEND",
			"doubleSided":true,
			"extensions":{
				"KHR_materials_transmission":{
					"transmissionFactor":1
				},
				"KHR_materials_ior":{
					"ior":1.4500000476837158
				}
			},
			"name":"Glass",
			"pbrMetallicRoughness":{
				"baseColorFactor":[
					0.800000011920929,
					0.800000011920929,
					0.800000011920929,
					1
				],
				"metallicFactor":0,
				"roughnessFactor":0
			}
		},
		{
			"doubleSided":true,
			"extensions":{
				"KHR_materials_transmission":{
					"transmissionFactor":1
				},
				"KHR_materials_ior":{
					"ior":1.4500000476837158
				}
			},
			"name":"Frosted glass",
			"pbrMetallicRoughness":{
				"baseColorFactor":[
					0.800000011920929,
					0.800000011920929,
					0.800000011920929,
					1
				],
				"metallicFactor":0,
				"roughnessFactor":0.48181816935539246
			}
		},
		{
			"alphaMode":"BLEND",
			"doubleSided":true,
			"name":"rb 25mL",
			"pbrMetallicRoughness":{
				"baseColorTexture":{
					"index":0
				},
				"metallicFactor":0,
				"roughnessFactor":0.5
			}
		}
	],
	"meshes":[
		{
			"name":"Sphere.001",
			"primitives":[
				{
					"attributes":{
						"POSITION":0,
						"NORMAL":1,
						"TEXCOORD_0":2
					},
					"indices":3,
					"material":0
				},
				{
					"attributes":{
						"POSITION":4,
						"NORMAL":5,
						"TEXCOORD_0":6
					},
					"indices":7,
					"material":1
				}
			]
		},
		{
			"name":"rb 25mL",
			"primitives":[
				{
					"attributes":{
						"POSITION":8,
						"NORMAL":9,
						"TEXCOORD_0":10
					},
					"indices":11,
					"material":2
				}
			]
		}
	],
	"textures":[
		{
			"sampler":0,
			"source":0
		}
	],
	"images":[
		{
			"bufferView":12,
			"mimeType":"image/png",
			"name":"rb 25mL"
		}
	],
	"accessors":[
		{
			"bufferView":0,
			"componentType":5126,
			"count":2008,
			"max":[
				0.37247779965400696,
				0.6269714832305908,
				0.37247779965400696
			],
			"min":[
				-0.37247776985168457,
				-0.3498651087284088,
				-0.37247782945632935
			],
			"type":"VEC3"
		},
		{
			"bufferView":1,
			"componentType":5126,
			"count":2008,
			"type":"VEC3"
		},
		{
			"bufferView":2,
			"componentType":5126,
			"count":2008,
			"type":"VEC2"
		},
		{
			"bufferView":3,
			"componentType":5123,
			"count":9408,
			"type":"SCALAR"
		},
		{
			"bufferView":4,
			"componentType":5126,
			"count":744,
			"max":[
				0.18117192387580872,
				0.9967830181121826,
				0.1811719536781311
			],
			"min":[
				-0.18117192387580872,
				0.5521227121353149,
				-0.18117192387580872
			],
			"type":"VEC3"
		},
		{
			"bufferView":5,
			"componentType":5126,
			"count":744,
			"type":"VEC3"
		},
		{
			"bufferView":6,
			"componentType":5126,
			"count":744,
			"type":"VEC2"
		},
		{
			"bufferView":7,
			"componentType":5123,
			"count":3456,
			"type":"SCALAR"
		},
		{
			"bufferView":8,
			"componentType":5126,
			"count":225,
			"max":[
				0.23454813659191132,
				0.12079477310180664,
				-0.2191752940416336
			],
			"min":[
				-0.3283674120903015,
				-0.12079477310180664,
				-0.3959587812423706
			],
			"type":"VEC3"
		},
		{
			"bufferView":9,
			"componentType":5126,
			"count":225,
			"type":"VEC3"
		},
		{
			"bufferView":10,
			"componentType":5126,
			"count":225,
			"type":"VEC2"
		},
		{
			"bufferView":11,
			"componentType":5123,
			"count":1152,
			"type":"SCALAR"
		}
	],
	"bufferViews":[
		{
			"buffer":0,
			"byteLength":24096,
			"byteOffset":0,
			"target":34962
		},
		{
			"buffer":0,
			"byteLength":24096,
			"byteOffset":24096,
			"target":34962
		},
		{
			"buffer":0,
			"byteLength":16064,
			"byteOffset":48192,
			"target":34962
		},
		{
			"buffer":0,
			"byteLength":18816,
			"byteOffset":64256,
			"target":34963
		},
		{
			"buffer":0,
			"byteLength":8928,
			"byteOffset":83072,
			"target":34962
		},
		{
			"buffer":0,
			"byteLength":8928,
			"byteOffset":92000,
			"target":34962
		},
		{
			"buffer":0,
			"byteLength":5952,
			"byteOffset":100928,
			"target":34962
		},
		{
			"buffer":0,
			"byteLength":6912,
			"byteOffset":106880,
			"target":34963
		},
		{
			"buffer":0,
			"byteLength":2700,
			"byteOffset":113792,
			"target":34962
		},
		{
			"buffer":0,
			"byteLength":2700,
			"byteOffset":116492,
			"target":34962
		},
		{
			"buffer":0,
			"byteLength":1800,
			"byteOffset":119192,
			"target":34962
		},
		{
			"buffer":0,
			"byteLength":2304,
			"byteOffset":120992,
			"target":34963
		},
		{
			"buffer":0,
			"byteLength":13695,
			"byteOffset":123296
		}
	],
	"samplers":[
		{
			"magFilter":9729,
			"minFilter":9987,
			"wrapS":33071,
			"wrapT":33071
		}
	],
	"buffers":[
		{
			"byteLength":136992,
			"uri":"data:application/octet-stream;base64,"
		}
	]
}
