{
	"asset":{
		"generator":"Khronos glTF Blender I/O v3.6.27",
		"version":"2.0"
	},
	"extensionsUsed":[
		"KHR_materials_transmission",
		"KHR_materials_ior"
	],
	"scene":0,
	"scenes":[
		{
			"name":"Scene",
			"nodes":[
				0,
				1
			]
		}
	],
	"nodes":[
		{
			"mesh":0,
			"name":"round-bottomed flask",
			"translation":[
				0,
				1.7250354290008545,
				0
			]
		},
		{
			"mesh":1,
			"name":"rb 100ml",
			"translation":[
				0.05018950253725052,
				0.5955930948257446,
				0.6257821917533875
			]
		}
	],
	"materials":[
		{
			"doubleSided":true,
			"extensions":{
				"KHR_materials_transmission":{
					"transmissionFactor":1
				},
				"KHR_materials_ior":{
					"ior":1.4500000476837158
				}
			},
			"name":"Frosted glass",
			"pbrMetallicRoughness":{
				"baseColorFactor":[
					0.800000011920929,
					0.800000011920929,
					0.800000011920929,
					1
				],
				"metallicFactor":0,
				"roughnessFactor":0.48181816935539246
			}
		},
		{
			"alphaMode":"BLEND",
			"doubleSided":true,
			"extensions":{
				"KHR_materials_transmission":{
					"transmissionFactor":1
				},
				"KHR_materials_ior":{
					"ior":1.4500000476837158
				}
			},
			"name":"Glass",
			"pbrMetallicRoughness":{
				"baseColorFactor":[
					0.800000011920929,
					0.800000011920929,
					0.800000011920929,
					1
				],
				"metallicFactor":0,
				"roughnessFactor":0
			}
		},
		{
			"alphaMode":"BLEND",
			"doubleSided":true,
			"name":"rb 100ml",
			"pbrMetallicRoughness":{
				"baseColorTexture":{
					"index":0
				},
				"metallicFactor":0,
				"roughnessFactor":0.5
			}
		}
	],
	"meshes":[
		{
			"name":"Torus",
			"primitives":[
				{
					"attributes":{
						"POSITION":0,
						"NORMAL":1,
						"TEXCOORD_0":2
					},
					"indices":3,
					"material":0
				},
				{
					"attributes":{
						"POSITION":4,
						"NORMAL":5,
						"TEXCOORD_0":6
					},
					"indices":7,
					"material":1
				}
			]
		},
		{
			"name":"rb 100ml",
			"primitives":[
				{
					"attributes":{
						"POSITION":8,
						"NORMAL":9,
						"TEXCOORD_0":10
					},
					"indices":11,
					"material":2
				}
			]
		}
	],
	"textures":[
		{
			"sampler":0,
			"source":0
		}
	],
	"images":[
		{
			"bufferView":12,
			"mimeType":"image/png",
			"name":"rb 100ml"
		}
	],
	"accessors":[
		{
			"bufferView":0,
			"componentType":5126,
			"count":891,
			"max":[
				0.22388039529323578,
				0.05526886135339737,
				0.22388041019439697
			],
			"min":[
				-0.22388038039207458,
				-0.43018245697021484,
				-0.22388041019439697
			],
			"type":"VEC3"
		},
		{
			"bufferView":1,
			"componentType":5126,
			"count":891,
			"type":"VEC3"
		},
		{
			"bufferView":2,
			"componentType":5126,
			"count":891,
			"type":"VEC2"
		},
		{
			"bufferView":3,
			"componentType":5123,
			"count":5184,
			"type":"SCALAR"
		},
		{
			"bufferView":4,
			"componentType":5126,
			"count":1811,
			"max":[
				0.5615880489349365,
				-0.41851606965065,
				0.5615881085395813
			],
			"min":[
				-0.5615879893302917,
				-1.6710139513015747,
				-0.5615880489349365
			],
			"type":"VEC3"
		},
		{
			"bufferView":5,
			"componentType":5126,
			"count":1811,
			"type":"VEC3"
		},
		{
			"bufferView":6,
			"componentType":5126,
			"count":1811,
			"type":"VEC2"
		},
		{
			"bufferView":7,
			"componentType":5123,
			"count":10176,
			"type":"SCALAR"
		},
		{
			"bufferView":8,
			"componentType":5126,
			"count":697,
			"max":[
				0.46254438161849976,
				0.16979479789733887,
				-0.054821424186229706
			],
			"min":[
				-0.46254438161849976,
				-0.16979479789733887,
				-0.48024874925613403
			],
			"type":"VEC3"
		},
		{
			"bufferView":9,
			"componentType":5126,
			"count":697,
			"type":"VEC3"
		},
		{
			"bufferView":10,
			"componentType":5126,
			"count":697,
			"type":"VEC2"
		},
		{
			"bufferView":11,
			"componentType":5123,
			"count":3840,
			"type":"SCALAR"
		}
	],
	"bufferViews":[
		{
			"buffer":0,
			"byteLength":10692,
			"byteOffset":0,
			"target":34962
		},
		{
			"buffer":0,
			"byteLength":10692,
			"byteOffset":10692,
			"target":34962
		},
		{
			"buffer":0,
			"byteLength":7128,
			"byteOffset":21384,
			"target":34962
		},
		{
			"buffer":0,
			"byteLength":10368,
			"byteOffset":28512,
			"target":34963
		},
		{
			"buffer":0,
			"byteLength":21732,
			"byteOffset":38880,
			"target":34962
		},
		{
			"buffer":0,
			"byteLength":21732,
			"byteOffset":60612,
			"target":34962
		},
		{
			"buffer":0,
			"byteLength":14488,
			"byteOffset":82344,
			"target":34962
		},
		{
			"buffer":0,
			"byteLength":20352,
			"byteOffset":96832,
			"target":34963
		},
		{
			"buffer":0,
			"byteLength":8364,
			"byteOffset":117184,
			"target":34962
		},
		{
			"buffer":0,
			"byteLength":8364,
			"byteOffset":125548,
			"target":34962
		},
		{
			"buffer":0,
			"byteLength":5576,
			"byteOffset":133912,
			"target":34962
		},
		{
			"buffer":0,
			"byteLength":7680,
			"byteOffset":139488,
			"target":34963
		},
		{
			"buffer":0,
			"byteLength":13861,
			"byteOffset":147168
		}
	],
	"samplers":[
		{
			"magFilter":9729,
			"minFilter":9987,
			"wrapS":33071,
			"wrapT":33071
		}
	],
	"buffers":[
		{
			"byteLength":161032,
			"uri":"data:application/octet-stream;base64,"
		}
	]
}
