{
	"asset":{
		"generator":"Khronos glTF Blender I/O v3.6.27",
		"version":"2.0"
	},
	"scene":0,
	"scenes":[
		{
			"name":"Scene",
			"nodes":[
				0,
				1
			]
		}
	],
	"nodes":[
		{
			"mesh":0,
			"name":"backup",
			"scale":[
				0.24306349456310272,
				0.24306349456310272,
				0.24306349456310272
			],
			"translation":[
				0,
				0.24200323224067688,
				0
			]
		},
		{
			"mesh":1,
			"name":"sample A",
			"scale":[
				0.8837724924087524,
				0.8837724924087524,
				0.8837724924087524
			],
			"translation":[
				0,
				0.5618875026702881,
				0.27373361587524414
			]
		}
	],
	"materials":[
		{
			"doubleSided":true,
			"name":"Material",
			"pbrMetallicRoughness":{
				"baseColorFactor":[
					0.6382717490196228,
					0.6382717490196228,
					0.6382717490196228,
					1
				],
				"metallicFactor":0,
				"roughnessFactor":0.5
			}
		},
		{
			"alphaMode":"BLEND",
			"doubleSided":true,
			"name":"sample A",
			"pbrMetallicRoughness":{
				"baseColorTexture":{
					"index":0
				},
				"metallicFactor":0,
				"roughnessFactor":0.5
			}
		}
	],
	"meshes":[
		{
			"name":"Cylinder.001",
			"primitives":[
				{
					"attributes":{
						"POSITION":0,
						"NORMAL":1,
						"TEXCOORD_0":2
					},
					"indices":3,
					"material":0
				}
			]
		},
		{
			"name":"sample A.002",
			"primitives":[
				{
					"attributes":{
						"POSITION":4,
						"NORMAL":5,
						"TEXCOORD_0":6
					},
					"indices":7,
					"material":1
				}
			]
		}
	],
	"textures":[
		{
			"sampler":0,
			"source":0
		}
	],
	"images":[
		{
			"bufferView":8,
			"mimeType":"image/png",
			"name":"sample A"
		}
	],
	"accessors":[
		{
			"bufferView":0,
			"componentType":5126,
			"count":3984,
			"max":[
				1.0139445066452026,
				2.8748486042022705,
				1.0139445066452026
			],
			"min":[
				-1.0139445066452026,
				-0.9979445934295654,
				-1.0139445066452026
			],
			"type":"VEC3"
		},
		{
			"bufferView":1,
			"componentType":5126,
			"count":3984,
			"type":"VEC3"
		},
		{
			"bufferView":2,
			"componentType":5126,
			"count":3984,
			"type":"VEC2"
		},
		{
			"bufferView":3,
			"componentType":5123,
			"count":15048,
			"type":"SCALAR"
		},
		{
			"bufferView":4,
			"componentType":5126,
			"count":504,
			"max":[
				0.17948749661445618,
				0.07713106274604797,
				-0.030441151931881905
			],
			"min":[
				-0.17948749661445618,
				-0.07713118195533752,
				-0.10352452099323273
			],
			"type":"VEC3"
		},
		{
			"bufferView":5,
			"componentType":5126,
			"count":504,
			"type":"VEC3"
		},
		{
			"bufferView":6,
			"componentType":5126,
			"count":504,
			"type":"VEC2"
		},
		{
			"bufferView":7,
			"componentType":5123,
			"count":1152,
			"type":"SCALAR"
		}
	],
	"bufferViews":[
		{
			"buffer":0,
			"byteLength":47808,
			"byteOffset":0,
			"target":34962
		},
		{
			"buffer":0,
			"byteLength":47808,
			"byteOffset":47808,
			"target":34962
		},
		{
			"buffer":0,
			"byteLength":31872,
			"byteOffset":95616,
			"target":34962
		},
		{
			"buffer":0,
			"byteLength":30096,
			"byteOffset":127488,
			"target":34963
		},
		{
			"buffer":0,
			"byteLength":6048,
			"byteOffset":157584,
			"target":34962
		},
		{
			"buffer":0,
			"byteLength":6048,
			"byteOffset":163632,
			"target":34962
		},
		{
			"buffer":0,
			"byteLength":4032,
			"byteOffset":169680,
			"target":34962
		},
		{
			"buffer":0,
			"byteLength":2304,
			"byteOffset":173712,
			"target":34963
		},
		{
			"buffer":0,
			"byteLength":3307,
			"byteOffset":176016
		}
	],
	"samplers":[
		{
			"magFilter":9729,
			"minFilter":9987,
			"wrapS":33071,
			"wrapT":33071
		}
	],
	"buffers":[
		{
			"byteLength":179324,
			"uri":"data:application/octet-stream;base64,"
		}
	]
}
