{
	"asset":{
		"generator":"Khronos glTF Blender I/O v3.6.27",
		"version":"2.0"
	},
	"scene":0,
	"scenes":[
		{
			"name":"Scene",
			"nodes":[
				0,
				1,
				2,
				3,
				4,
				5,
				6
			]
		}
	],
	"nodes":[
		{
			"mesh":0,
			"name":"lab_clamp_assy_asm",
			"rotation":[
				0.7071068286895752,
				0,
				0,
				0.7071068286895752
			],
			"scale":[
				0.28630900382995605,
				0.28630900382995605,
				0.28630900382995605
			]
		},
		{
			"mesh":1,
			"name":"lab_clamp_assy_asm.003",
			"rotation":[
				0.7071068286895752,
				0,
				0,
				0.7071068286895752
			],
			"scale":[
				0.28630900382995605,
				0.28630900382995605,
				0.28630900382995605
			]
		},
		{
			"mesh":2,
			"name":"sf holder",
			"rotation":[
				0,
				0.7071068286895752,
				0,
				0.7071067690849304
			],
			"scale":[
				0.45992952585220337,
				0.45992952585220337,
				0.45992952585220337
			],
			"translation":[
				-0.0014019981026649475,
				2.461991786956787,
				0.14720535278320312
			]
		},
		{
			"name":"NurbsPath"
		},
		{
			"mesh":3,
			"name":"C shape",
			"rotation":[
				0.7071068286895752,
				0,
				0,
				0.7071068286895752
			],
			"scale":[
				0.5708300471305847,
				0.5708300471305847,
				0.5708300471305847
			],
			"translation":[
				-0.0007579363882541656,
				2.4240498542785645,
				-0.846204400062561
			]
		},
		{
			"mesh":4,
			"name":"knob",
			"rotation":[
				0.7071068286895752,
				0,
				0,
				0.7071068286895752
			],
			"scale":[
				0.5708300471305847,
				0.5708300471305847,
				0.5708300471305847
			],
			"translation":[
				-0.0026570819318294525,
				2.462845802307129,
				-1.4981807470321655
			]
		},
		{
			"mesh":5,
			"name":"Scrrew",
			"rotation":[
				0,
				-0.7071068286895752,
				0.7071068286895752,
				2.2476466909893134e-08
			],
			"scale":[
				0.01878208853304386,
				0.019771624356508255,
				0.01878208853304386
			],
			"translation":[
				-0.00271051749587059,
				2.461991786956787,
				-1.0003889799118042
			]
		}
	],
	"materials":[
		{
			"doubleSided":true,
			"name":"black metal",
			"pbrMetallicRoughness":{
				"baseColorFactor":[
					0.009680375456809998,
					0.0020243783947080374,
					0.001221173326484859,
					1
				],
				"metallicFactor":0.7322834730148315
			}
		},
		{
			"doubleSided":true,
			"name":"metal",
			"pbrMetallicRoughness":{
				"baseColorFactor":[
					0.2552174925804138,
					0.2552174925804138,
					0.2552174925804138,
					1
				],
				"roughnessFactor":0.3562992215156555
			}
		},
		{
			"doubleSided":true,
			"name":"Light blue",
			"pbrMetallicRoughness":{
				"baseColorFactor":[
					0.03359091281890869,
					0.1419583559036255,
					0.375747412443161,
					1
				],
				"metallicFactor":0,
				"roughnessFactor":0.4055117964744568
			}
		}
	],
	"meshes":[
		{
			"name":"lab_clamp_assy_asm",
			"primitives":[
				{
					"attributes":{
						"POSITION":0,
						"NORMAL":1
					},
					"indices":2,
					"material":0
				}
			]
		},
		{
			"name":"lab_clamp_assy_asm.003",
			"primitives":[
				{
					"attributes":{
						"POSITION":3,
						"NORMAL":4
					},
					"indices":5,
					"material":1
				}
			]
		},
		{
			"name":"Circle",
			"primitives":[
				{
					"attributes":{
						"POSITION":6,
						"NORMAL":7
					},
					"indices":8,
					"material":0
				}
			]
		},
		{
			"name":"Vert",
			"primitives":[
				{
					"attributes":{
						"POSITION":9,
						"NORMAL":10
					},
					"indices":11,
					"material":0
				}
			]
		},
		{
			"name":"Cylinder",
			"primitives":[
				{
					"attributes":{
						"POSITION":12,
						"NORMAL":13,
						"TEXCOORD_0":14
					},
					"indices":15,
					"material":2
				}
			]
		},
		{
			"name":"Bolt.002",
			"primitives":[
				{
					"attributes":{
						"POSITION":16,
						"NORMAL":17
					},
					"indices":18,
					"material":1
				}
			]
		}
	],
	"accessors":[
		{
			"bufferView":0,
			"componentType":5126,
			"count":5307,
			"max":[
				2.75,
				4.5,
				0
			],
			"min":[
				-2.75,
				-4.5,
				-0.800000011920929
			],
			"type":"VEC3"
		},
		{
			"bufferView":1,
			"componentType":5126,
			"count":5307,
			"type":"VEC3"
		},
		{
			"bufferView":2,
			"componentType":5123,
			"count":9360,
			"type":"SCALAR"
		},
		{
			"bufferView":3,
			"componentType":5126,
			"count":1559,
			"max":[
				0.25,
				-3.0000357627868652,
				-0.35000038146972656
			],
			"min":[
				-0.25,
				-3.4999642372131348,
				-20.350000381469727
			],
			"type":"VEC3"
		},
		{
			"bufferView":4,
			"componentType":5126,
			"count":1559,
			"type":"VEC3"
		},
		{
			"bufferView":5,
			"componentType":5123,
			"count":2220,
			"type":"SCALAR"
		},
		{
			"bufferView":6,
			"componentType":5126,
			"count":1138,
			"max":[
				2.153571367263794,
				0.06666094064712524,
				1.0607173442840576
			],
			"min":[
				-1.0607173442840576,
				-0.06638932973146439,
				-1.0607173442840576
			],
			"type":"VEC3"
		},
		{
			"bufferView":7,
			"componentType":5126,
			"count":1138,
			"type":"VEC3"
		},
		{
			"bufferView":8,
			"componentType":5123,
			"count":6828,
			"type":"SCALAR"
		},
		{
			"bufferView":9,
			"componentType":5126,
			"count":240,
			"max":[
				0.17653855681419373,
				0.048111505806446075,
				0
			],
			"min":[
				-0.1992880403995514,
				-0.491398423910141,
				-0.13669133186340332
			],
			"type":"VEC3"
		},
		{
			"bufferView":10,
			"componentType":5126,
			"count":240,
			"type":"VEC3"
		},
		{
			"bufferView":11,
			"componentType":5123,
			"count":1428,
			"type":"SCALAR"
		},
		{
			"bufferView":12,
			"componentType":5126,
			"count":2706,
			"max":[
				0.18884937465190887,
				0.15365639328956604,
				0.1782498061656952
			],
			"min":[
				-0.18884937465190887,
				-0.08675066381692886,
				-0.1782498061656952
			],
			"type":"VEC3"
		},
		{
			"bufferView":13,
			"componentType":5126,
			"count":2706,
			"type":"VEC3"
		},
		{
			"bufferView":14,
			"componentType":5126,
			"count":2706,
			"type":"VEC2"
		},
		{
			"bufferView":15,
			"componentType":5123,
			"count":11130,
			"type":"SCALAR"
		},
		{
			"bufferView":16,
			"componentType":5126,
			"count":8746,
			"max":[
				1.517187476158142,
				21.017187118530273,
				1.517187476158142
			],
			"min":[
				-1.5171875953674316,
				0,
				-1.517187476158142
			],
			"type":"VEC3"
		},
		{
			"bufferView":17,
			"componentType":5126,
			"count":8746,
			"type":"VEC3"
		},
		{
			"bufferView":18,
			"componentType":5123,
			"count":52362,
			"type":"SCALAR"
		}
	],
	"bufferViews":[
		{
			"buffer":0,
			"byteLength":63684,
			"byteOffset":0,
			"target":34962
		},
		{
			"buffer":0,
			"byteLength":63684,
			"byteOffset":63684,
			"target":34962
		},
		{
			"buffer":0,
			"byteLength":18720,
			"byteOffset":127368,
			"target":34963
		},
		{
			"buffer":0,
			"byteLength":18708,
			"byteOffset":146088,
			"target":34962
		},
		{
			"buffer":0,
			"byteLength":18708,
			"byteOffset":164796,
			"target":34962
		},
		{
			"buffer":0,
			"byteLength":4440,
			"byteOffset":183504,
			"target":34963
		},
		{
			"buffer":0,
			"byteLength":13656,
			"byteOffset":187944,
			"target":34962
		},
		{
			"buffer":0,
			"byteLength":13656,
			"byteOffset":201600,
			"target":34962
		},
		{
			"buffer":0,
			"byteLength":13656,
			"byteOffset":215256,
			"target":34963
		},
		{
			"buffer":0,
			"byteLength":2880,
			"byteOffset":228912,
			"target":34962
		},
		{
			"buffer":0,
			"byteLength":2880,
			"byteOffset":231792,
			"target":34962
		},
		{
			"buffer":0,
			"byteLength":2856,
			"byteOffset":234672,
			"target":34963
		},
		{
			"buffer":0,
			"byteLength":32472,
			"byteOffset":237528,
			"target":34962
		},
		{
			"buffer":0,
			"byteLength":32472,
			"byteOffset":270000,
			"target":34962
		},
		{
			"buffer":0,
			"byteLength":21648,
			"byteOffset":302472,
			"target":34962
		},
		{
			"buffer":0,
			"byteLength":22260,
			"byteOffset":324120,
			"target":34963
		},
		{
			"buffer":0,
			"byteLength":104952,
			"byteOffset":346380,
			"target":34962
		},
		{
			"buffer":0,
			"byteLength":104952,
			"byteOffset":451332,
			"target":34962
		},
		{
			"buffer":0,
			"byteLength":104724,
			"byteOffset":556284,
			"target":34963
		}
	],
	"buffers":[
		{
			"byteLength":661008,
			"uri":"data:application/octet-stream;base64,"
		}
	]
}
