{
	"asset":{
		"generator":"Khronos glTF Blender I/O v3.6.27",
		"version":"2.0"
	},
	"extensionsUsed":[
		"KHR_materials_clearcoat",
		"KHR_materials_specular",
		"KHR_materials_ior"
	],
	"scene":0,
	"scenes":[
		{
			"name":"Scene",
			"nodes":[
				0
			]
		}
	],
	"nodes":[
		{
			"mesh":0,
			"name":"stopper",
			"rotation":[
				-0.001128490432165563,
				0.944365918636322,
				0.0032410200219601393,
				0.3288787305355072
			],
			"scale":[
				0.5581007599830627,
				0.7315029501914978,
				0.5581007599830627
			],
			"translation":[
				0,
				0.7714372873306274,
				0
			]
		}
	],
	"materials":[
		{
			"doubleSided":true,
			"extensions":{
				"KHR_materials_clearcoat":{
					"clearcoatFactor":0.1418439745903015,
					"clearcoatRoughnessFactor":0
				},
				"KHR_materials_specular":{
					"specularColorFactor":[
						0.2221444099648748,
						0.9673252213484277,
						2.2302725361715563
					]
				},
				"KHR_materials_ior":{
					"ior":0.6500000953674316
				}
			},
			"name":"Material.001",
			"pbrMetallicRoughness":{
				"baseColorFactor":[
					0,
					0.26434123516082764,
					0.7123520374298096,
					1
				],
				"metallicFactor":0,
				"roughnessFactor":0.3510638475418091
			}
		}
	],
	"meshes":[
		{
			"name":"Cylinder.008",
			"primitives":[
				{
					"attributes":{
						"POSITION":0,
						"NORMAL":1,
						"TEXCOORD_0":2
					},
					"indices":3,
					"material":0
				}
			]
		}
	],
	"accessors":[
		{
			"bufferView":0,
			"componentType":5126,
			"count":10436,
			"max":[
				1.0914342403411865,
				0.5055792331695557,
				0.8837344646453857
			],
			"min":[
				-1.0934908390045166,
				-1.013392448425293,
				-1.1122666597366333
			],
			"type":"VEC3"
		},
		{
			"bufferView":1,
			"componentType":5126,
			"count":10436,
			"type":"VEC3"
		},
		{
			"bufferView":2,
			"componentType":5126,
			"count":10436,
			"type":"VEC2"
		},
		{
			"bufferView":3,
			"componentType":5123,
			"count":59124,
			"type":"SCALAR"
		}
	],
	"bufferViews":[
		{
			"buffer":0,
			"byteLength":125232,
			"byteOffset":0,
			"target":34962
		},
		{
			"buffer":0,
			"byteLength":125232,
			"byteOffset":125232,
			"target":34962
		},
		{
			"buffer":0,
			"byteLength":83488,
			"byteOffset":250464,
			"target":34962
		},
		{
			"buffer":0,
			"byteLength":118248,
			"byteOffset":333952,
			"target":34963
		}
	],
	"buffers":[
		{
			"byteLength":452200,
			"uri":"stopper_1003.bin"
		}
	]
}
